<svg width="144" height="220" viewBox="0 0 144 220" xmlns="http://www.w3.org/2000/svg"><title>alexrdz</title><g fill="none"><path d="M111.458 139.237s-1.884 16.352-9.084 20.242H43.66c-7.2-3.89-9.083-20.243-9.083-20.243s-16.213-10.098-15.75-5.866c.462 4.23 3.43 10.356 7.127 11.134 3.696.777 3.89 12.64 5.253 22.422s4.087 13.947 7.59 15.892c3.502 1.944 2.334 3.5 13.426 8.17 11.09 4.665 20.792 3.5 20.795 3.5.003 0 9.705 1.165 20.795-3.5 11.092-4.67 9.923-6.226 13.426-8.17 3.5-1.945 6.226-6.11 7.588-15.892 1.362-9.78 1.555-21.645 5.254-22.422 3.696-.778 6.664-6.902 7.127-11.133.46-4.23-15.75 5.867-15.75 5.867m9.01-97.84C106.462 24.478 85.715 23.31 73.02 23.31c-12.7 0-33.446 1.168-47.455 18.088-14.01 16.92-17.805 37.71-12.843 56.012 4.085 15.072 2.042 18.67 2.042 18.67s-5.836 16.63 14.303 20.713c20.14 4.085 15.76 15.56 15.47 21.394l28.482.193 28.48-.193c-.292-5.834-4.67-17.31 15.47-21.394 20.14-4.083 14.303-20.712 14.303-20.712s-2.044-3.6 2.042-18.67c4.962-18.302 1.168-39.092-12.843-56.012" fill="#FFF"/><path d="M50.71 188.16c2.932-1.638 9.764-5.245 9.916-1.08.127 3.462-5.938 2.4-9.915 1.08m-4.636-7.21c-.12-1.24-.19-3.34 1.224-3.92 1.056-.433 1.234 1.12 1.307 1.78.184 1.64.037 3.32-.213 4.99-.38 1-.637 2.046-.733 3.063a.55.55 0 0 0-.32-.093 4.612 4.612 0 0 0-.09-.303c-.538-1.807-.993-3.633-1.176-5.516m5.92-.835c.68-.68 3.52-1.873 3.698-.022.22 2.262-3.453 5.57-5.73 6.965l-.805.44-.082.058-.223-.093c.182-1.003.355-2.005.507-3.01.23-.62.5-1.226.79-1.805a9.844 9.844 0 0 1 1.845-2.533m2.198 4.966c2.016-2.125 3.54-4.67 2.01-6.333-1.688-1.832-4.482.016-5.667 1.378-.278.32-.54.67-.79 1.04.14-1.636.25-4.198-1.126-5.026-1.603-.965-3.02.626-3.464 2.05-.418 1.336-.335 2.866-.048 4.385-1.723-2.39-4.098-4.603-6.008-4.043-1.837.538-2.08 2.702-1.136 4.116 1.564 2.34 4.7 2.905 6.956 4.263.178.11.386-.15.226-.293-1.093-.962-2.34-1.703-3.56-2.483-.864-.55-1.68-1.116-2.396-1.855-1.08-1.12-.468-3.234 1.218-2.492 2.198.967 4.855 4.188 5.74 6.666l.187.6a.484.484 0 0 0 .357.343.523.523 0 0 0 .194.467c.218.183.487.367.788.55.106.248.39.386.632.352 4.1 2.093 12.753 3.514 13.596-1.512.777-4.626-3.76-3.738-7.71-2.173m41.727 3.887c-3.052.334-6.714 1.862-9.53 0-.892-.62-1.643-2.196-.845-3.152.938-1.193 2.99-.984 4.21-.84.987.094 1.94.84 2.925.984-.517-1.386-3.66-5.492-1.878-6.78.563-.43 1.22-.192 1.83 0 .47.142 1.41.285 1.784.572.47.333.61 1.193.986 1.623.33.477.798 1.002 1.22 1.337.283-1.146.705-2.387.846-3.58.14-.765.047-2.58 1.22-2.293 1.455.333 2.034 2.413 2.034 3.51 0 1.195-.53 2.505-.25 3.7 1.596-.574 2.16-2.675 3.708-3.487.61-.334 3.018-2.03 3.568-.716.376.898-.188 2.244-.61 2.674-1.362 1.386-3.24 2.054-4.835 3.104-1.972 1.29-3.614 3.916-6.196 3.964-.75 0-1.503-.287-2.207-.335-.093 0-.188 0-.28.048m-43.59-.333c3.05.334 6.712 1.862 9.53 0 .89-.62 1.64-2.196.844-3.152-.94-1.193-2.99-.984-4.212-.84-.986.094-1.938.84-2.924.984.517-1.386 3.66-5.492 1.878-6.78-.563-.43-1.22-.192-1.83 0-.47.142-1.41.285-1.784.572-.47.333-.61 1.193-.986 1.623-.328.477-.798 1.002-1.22 1.337-.282-1.146-.705-2.387-.845-3.58-.14-.765-.046-2.58-1.22-2.293-1.455.333-2.034 2.413-2.034 3.51 0 1.195.532 2.505.25 3.7-1.596-.574-2.16-2.675-3.708-3.487-.61-.334-3.017-2.03-3.568-.716-.376.898.188 2.244.61 2.674 1.362 1.386 3.24 2.054 4.836 3.104 1.972 1.29 3.614 3.916 6.196 3.964.75 0 1.502-.287 2.206-.335.094 0 .188 0 .282.048m33.34-2.22c.155-4.165 6.986-.558 9.917 1.08-3.977 1.32-10.042 2.38-9.916-1.08m13.377-.613a5.172 5.172 0 0 0-.09.303.548.548 0 0 0-.318.092 11.95 11.95 0 0 0-.733-3.062c-.25-1.67-.4-3.35-.215-4.99.074-.66.25-2.213 1.307-1.78 1.414.58 1.345 2.68 1.224 3.92-.182 1.884-.637 3.71-1.177 5.517m-2.9-3.82c.292.58.56 1.186.79 1.806.153 1.005.327 2.008.51 3.01l-.224.093-.082-.058-.804-.44c-2.277-1.394-5.95-4.704-5.73-6.965.178-1.85 3.02-.658 3.695.022a9.812 9.812 0 0 1 1.848 2.533m-11.754 4.605c.845 5.027 9.498 3.606 13.597 1.513a.613.613 0 0 0 .633-.352c.302-.182.57-.366.79-.55a.52.52 0 0 0 .193-.467.486.486 0 0 0 .357-.343l.186-.6c.885-2.48 3.54-5.7 5.74-6.667 1.685-.74 2.297 1.372 1.217 2.49-.713.74-1.53 1.307-2.393 1.857-1.223.78-2.47 1.52-3.562 2.483-.16.143.047.4.227.293 2.252-1.357 5.39-1.923 6.953-4.262.945-1.414.702-3.577-1.135-4.116-1.91-.56-4.285 1.654-6.008 4.043.287-1.52.37-3.05-.048-4.386-.444-1.423-1.862-3.015-3.464-2.05-1.375.827-1.267 3.39-1.127 5.024-.25-.37-.51-.72-.787-1.038-1.186-1.363-3.98-3.21-5.667-1.38-1.532 1.663-.007 4.21 2.008 6.336-3.95-1.566-8.486-2.453-7.71 2.17" fill="#B01368"/><path d="M119.785 143.09c-3.88.817-4.632 7.87-5.587 16.803-.242 2.27-.492 4.616-.8 6.835-1.152 8.26-3.267 12.832-6.86 14.828-1.284.712-2.046 1.408-2.784 2.083-1.44 1.317-3.233 2.957-10.502 6.015-4.455 1.876-8.687 2.77-12.07 3.185-2.538-1.785-4.66-3.434-6.065-6.288-1.26-2.562-1.487-5.376-2.23-8.09l.032-.835c.006-.217-.327-.262-.38-.05-.696 2.82-1.047 5.685-1.93 8.47-1.007 3.17-2.74 5.257-5.447 6.83-3.432-.396-7.788-1.29-12.38-3.222-7.267-3.057-9.06-4.698-10.502-6.016-.735-.674-1.497-1.37-2.783-2.084-3.593-1.997-5.71-6.57-6.86-14.828-.308-2.218-.56-4.567-.8-6.838-.954-8.93-1.707-15.983-5.585-16.8-2.176-.457-5.178-4.602-5.905-9.275 2.546.395 8.864 3.834 12.888 6.29.485 3.474 2.792 16.89 9.74 20.644l.32.173h59.444l.32-.174c6.946-3.753 9.254-17.17 9.742-20.644 4.025-2.457 10.347-5.9 12.89-6.29-.713 4.648-3.725 8.815-5.907 9.275M72.81 181.54a.252.252 0 0 0-.154-.156l.077-.723c.03.336.068.67.112 1l-.036-.12m55.293-49.873c-.462-.515-1.13-.776-1.984-.776-3.797 0-13.517 5.933-15.427 7.122l-.59.368-.08.692c-.005.04-.463 3.922-1.766 8.317-1.612 5.44-3.776 9.115-6.27 10.645h-57.94c-5.156-3.167-7.545-14.73-8.035-18.963l-.078-.692-.592-.368c-1.91-1.19-11.626-7.12-15.425-7.12-.854 0-1.524.26-1.988.777-.3.336-.64.93-.54 1.857.5 4.57 3.65 11.42 8.267 12.39 1.822.383 2.752 9.082 3.307 14.28.244 2.293.498 4.667.813 6.93 1.287 9.245 3.852 14.474 8.317 16.952.99.55 1.538 1.052 2.237 1.69 1.606 1.468 3.603 3.294 11.333 6.547 7.74 3.257 14.867 3.744 18.427 3.744 1.568 0 2.604-.09 2.93-.122.423.042 1.424.12 2.924.123h.002c3.56 0 10.687-.486 18.427-3.743 7.73-3.253 9.726-5.08 11.332-6.548.697-.638 1.247-1.14 2.236-1.69 4.465-2.48 7.03-7.707 8.32-16.954.315-2.275.57-4.64.81-6.93.557-5.198 1.485-13.896 3.31-14.28 4.616-.97 7.766-7.82 8.265-12.39.1-.925-.238-1.52-.542-1.86" fill="#000"/><path d="M81.15 119.368c-.502-3.355-5.044-8.315-6.495-7.73-1.452.582-.155 4.23-.01 9.334.147 5.106-1.627 7.585-1.627 7.585s-1.776-2.48-1.63-7.585c.147-5.105 1.443-8.752-.008-9.334-1.45-.585-5.993 4.375-6.495 7.73-.502 3.355-.606 6.126-1.648 8.022-1.042 1.897-4.2 4.814-1.527 9.92 2.673 5.105 10.6-.438 11.308-2.918.706 2.48 8.633 8.023 11.306 2.917s-.483-8.023-1.526-9.92c-1.043-1.896-1.147-4.667-1.648-8.022z" fill="#000"/><path d="M46.14 162.734s-2.724-1.697-3.494-.53-.72 6.247.982 6.05c1.7-.195 2.51-5.52 2.51-5.52" fill="#FFF"/><path d="M43.543 162.23c-.35 0-.47.123-.53.215-.478.722-.618 3.72.06 4.974.143.267.3.403.46.403a.372.372 0 0 0 .045-.003c.888-.102 1.736-2.857 2.08-4.86-.517-.286-1.456-.73-2.115-.73m-.01 6.467c-.35 0-.848-.15-1.233-.863-.81-1.506-.702-4.835-.02-5.87.183-.278.55-.608 1.263-.608 1.2 0 2.762.966 2.827 1.007l.245.152-.044.284c-.142.944-.956 5.668-2.89 5.89l-.146.007" fill="#1A1918"/><path d="M53.293 163.857s-.908-.826-2.66-.608c-1.75.218-1.75 2.163-1.75 2.163s-.868 6.126.878 6.613c1.75.485 2.203-2.44 2.203-2.44l1.33-5.73z" fill="#FFF"/><path d="M51.213 163.65c-.17 0-.347.012-.525.033-1.34.168-1.368 1.668-1.368 1.732l-.005.06c-.5 3.55-.098 5.944.563 6.13l.263.038c.866 0 1.305-1.574 1.39-2.125l.007-.032 1.262-5.442c-.266-.158-.795-.394-1.587-.394m-1.072 8.867c-.162 0-.33-.023-.496-.07-1.998-.557-1.36-5.917-1.2-7.066.012-.816.47-2.357 2.136-2.565a4.93 4.93 0 0 1 .633-.04c1.523 0 2.34.727 2.374.758l.19.173-1.384 5.963c-.042.26-.515 2.847-2.252 2.847" fill="#1A1918"/><path d="M69.8 174.36s-3.308-1.946-3.113-8.46c0 0-.487-2.043 3.113-2.043l3.21 1.556s-.096 9.237-3.21 8.946" fill="#FFF"/><path d="M69.8 164.294c-1.552 0-2.2.395-2.47.725a.994.994 0 0 0-.215.783l.01.05v.06c-.097 3.218.7 5.243 1.385 6.376.597.985 1.216 1.483 1.433 1.64.962 0 1.75-1.463 2.217-4.116.385-2.18.412-4.384.412-4.406l.014-.1c0-.006.023-.17-.136-.358-.207-.245-.825-.656-2.65-.656m.143 10.51l-.184-.01-.098-.008-.084-.05c-.143-.085-3.512-2.143-3.33-8.8a1.893 1.893 0 0 1 .386-1.447c.56-.71 1.626-1.07 3.166-1.07 1.702 0 2.83.34 3.357 1.012.336.43.316.857.29 1.022-.014 1.116-.23 9.35-3.504 9.35" fill="#1A1918"/><path d="M66.738 165.203s.43-1.25-2.437-1.346c-2.867-.098-3.45-.224-3.743 1.346-.292 1.57-.876 8.767 1.848 10.03 2.725 1.266 4.483-7.03 4.333-10.03" fill="#FFF"/><path d="M62.52 164.243c-1.24 0-1.368.157-1.532 1.04-.32 1.718-.73 8.472 1.602 9.554.13.06.25.09.373.09.268 0 .55-.153.84-.456 1.623-1.706 2.605-7.09 2.5-9.246l-.006-.083.028-.08c0-.002.017-.102-.073-.223-.11-.147-.527-.494-1.966-.542l-.51-.02c-.49-.017-.91-.032-1.257-.032m.443 11.56c-.248 0-.498-.058-.742-.172-3.077-1.428-2.36-9.062-2.094-10.507.28-1.502.965-1.755 2.393-1.755.36 0 .79.015 1.285.033l.51.02c1.375.046 2.274.362 2.67.94.25.362.227.713.194.884.092 2.327-.885 7.878-2.744 9.83-.46.483-.956.728-1.473.728" fill="#1A1918"/><path d="M60.4 166.468s-.62-2.13-1.3-2.663c-.683-.53-2.7-1.504-2.907 1.802-.21 3.307.224 9.595 1.758 9.758 1.536.16 2.678-3.66 2.45-8.897" fill="#FFF"/><path d="M57.685 163.687c-.77 0-1 1.06-1.056 1.948-.285 4.51.556 9.21 1.368 9.294a.405.405 0 0 0 .047 0c.157 0 .322-.087.49-.263.818-.854 1.612-3.76 1.428-8.127-.247-.83-.75-2.09-1.135-2.39-.273-.214-.737-.463-1.143-.463m.36 12.12l-.14-.007c-.93-.1-1.56-1.433-1.92-4.076-.257-1.876-.346-4.287-.23-6.144.152-2.41 1.274-2.77 1.93-2.77.79 0 1.487.498 1.682.65.754.59 1.34 2.507 1.45 2.886l.02.103c.18 4.112-.475 7.576-1.67 8.822-.34.355-.717.535-1.122.535" fill="#1A1918"/><path d="M56.193 165.607s-.534-2.707-2.366-2.13c-1.832.574-2.61 7.77-.956 9.23 1.654 1.458 3.476-1.38 3.407-2.335-.07-.956-.084-4.765-.084-4.765" fill="#FFF"/><path d="M54.32 163.833c-.112 0-.234.02-.36.06-.36.112-.907.855-1.274 2.577-.523 2.463-.3 5.224.474 5.907.23.202.457.3.698.3.357 0 .764-.227 1.146-.64.55-.59.856-1.348.836-1.633-.068-.913-.083-4.285-.085-4.748-.06-.256-.475-1.823-1.435-1.823m-.462 9.72h-.002c-.456 0-.885-.175-1.275-.52-1.193-1.052-1.277-4.26-.75-6.745.225-1.058.767-2.884 1.867-3.23.21-.067.42-.1.623-.1 1.776 0 2.28 2.46 2.302 2.565l.01.083c0 .038.012 3.804.08 4.733.046.605-.413 1.59-1.065 2.294-.56.6-1.178.918-1.79.918" fill="#1A1918"/><path d="M49.444 163.857s-.172-1.06-2.12-1.393c-1.945-.333-2.14 2.463-2.14 2.463s-.618 4.09 1.482 4.658c2.1.568 1.977-3.784 2.778-5.728" fill="#FFF"/><path d="M47.013 162.874c-1.232 0-1.39 2.06-1.39 2.083l-.005.035c-.155 1.03-.247 3.788 1.162 4.17a.958.958 0 0 0 .244.036c.81 0 1.138-1.692 1.427-3.187.156-.8.304-1.56.53-2.167-.097-.206-.465-.73-1.73-.948a1.524 1.524 0 0 0-.237-.02m.01 7.198c-.15 0-.31-.022-.47-.065-2.4-.65-1.853-4.788-1.804-5.13.02-.27.286-2.88 2.263-2.88.126 0 .254.013.386.035 2.228.38 2.467 1.697 2.476 1.753l.02.122-.047.115c-.23.552-.38 1.33-.54 2.155-.37 1.915-.755 3.895-2.286 3.895" fill="#1A1918"/><path d="M99.896 162.734s2.722-1.697 3.492-.53.72 6.247-.98 6.05c-1.702-.195-2.512-5.52-2.512-5.52" fill="#FFF"/><path d="M100.376 162.96c.345 2.003 1.192 4.758 2.08 4.86.186.02.35-.11.508-.4.675-1.255.535-4.253.06-4.975-.06-.092-.182-.214-.532-.214-.66 0-1.597.444-2.116.73m2.125 5.737l-.143-.007c-1.935-.222-2.75-4.946-2.894-5.89l-.044-.285.244-.152c.067-.04 1.628-1.007 2.828-1.007.713 0 1.08.33 1.26.607.684 1.036.794 4.365-.018 5.87-.384.715-.883.864-1.233.864" fill="#1A1918"/><path d="M92.742 163.857s.908-.826 2.66-.608c1.75.218 1.75 2.163 1.75 2.163s.87 6.126-.88 6.613c-1.746.485-2.202-2.44-2.202-2.44l-1.328-5.73z" fill="#FFF"/><path d="M93.236 164.045l1.268 5.472c.086.55.53 2.126 1.39 2.126l.262-.04c.66-.184 1.066-2.58.563-6.13l-.005-.06c0-.062-.028-1.562-1.368-1.73a4.417 4.417 0 0 0-.525-.033c-.787 0-1.32.238-1.586.395m2.658 8.472c-1.737 0-2.21-2.587-2.253-2.847l-1.38-5.964.187-.173c.034-.03.85-.76 2.375-.76.207 0 .42.015.633.042 1.668.208 2.124 1.75 2.135 2.566.162 1.15.798 6.51-1.2 7.067-.168.047-.335.07-.496.07" fill="#1A1918"/><path d="M76.234 174.36s3.308-1.946 3.114-8.46c0 0 .487-2.043-3.114-2.043-3.6 0-3.21 1.556-3.21 1.556s.097 9.237 3.21 8.946" fill="#FFF"/><path d="M76.234 164.294c-1.824 0-2.442.41-2.65.656-.158.19-.135.352-.133.37l.014.05-.003.038c.037 3.294.782 8.518 2.63 8.52.48-.346 2.987-2.435 2.82-8.015v-.06l.012-.055c.002-.01.08-.41-.218-.78-.27-.33-.916-.724-2.47-.724m-.143 10.51c-3.272 0-3.49-8.234-3.504-9.35a1.346 1.346 0 0 1 .29-1.022c.527-.672 1.657-1.013 3.358-1.013 1.54 0 2.606.36 3.166 1.07.416.524.443 1.127.387 1.446.18 6.657-3.187 8.715-3.33 8.8l-.084.05-.098.008a1.657 1.657 0 0 1-.184.01" fill="#1A1918"/><path d="M79.295 165.203s-.43-1.25 2.44-1.346c2.867-.098 3.45-.224 3.743 1.346.29 1.57.875 8.767-1.85 10.03-2.723 1.266-4.482-7.03-4.333-10.03" fill="#FFF"/><path d="M83.515 164.243c-.345 0-.766.015-1.254.033l-.512.02c-1.44.047-1.854.394-1.965.54-.09.12-.073.22-.068.24l.027.08-.01.068c-.106 2.154.876 7.54 2.5 9.247.42.44.796.56 1.212.367 2.332-1.082 1.922-7.836 1.603-9.554-.164-.883-.292-1.04-1.532-1.04m-.443 11.56c-.518 0-1.014-.246-1.473-.73-1.86-1.95-2.837-7.502-2.744-9.83a1.16 1.16 0 0 1 .194-.884c.396-.578 1.294-.894 2.67-.94l.51-.02c.496-.017.925-.032 1.285-.032 1.43 0 2.114.253 2.393 1.755.268 1.445.984 9.08-2.095 10.508a1.75 1.75 0 0 1-.74.17" fill="#1A1918"/><path d="M85.637 166.468s.618-2.13 1.3-2.663c.68-.53 2.697-1.504 2.905 1.802.208 3.307-.224 9.595-1.76 9.758-1.535.16-2.676-3.66-2.445-8.897" fill="#FFF"/><path d="M86.072 166.54c-.185 4.366.61 7.27 1.427 8.127.185.193.365.28.537.262.812-.086 1.652-4.787 1.368-9.296-.057-.888-.285-1.947-1.055-1.947-.406 0-.87.25-1.143.462-.385.3-.888 1.56-1.135 2.39m1.917 9.267c-.406 0-.783-.18-1.124-.536-1.193-1.244-1.847-4.71-1.666-8.822l.016-.103c.11-.378.697-2.296 1.45-2.885.196-.152.893-.65 1.684-.65.655 0 1.777.36 1.93 2.77.123 1.97.13 9.98-2.152 10.22a1.48 1.48 0 0 1-.14.007" fill="#1A1918"/><path d="M89.843 165.607s.532-2.707 2.364-2.13c1.832.574 2.61 7.77.956 9.23-1.653 1.458-3.476-1.38-3.405-2.335.07-.956.085-4.765.085-4.765" fill="#FFF"/><path d="M90.28 165.656c-.002.46-.018 3.835-.085 4.75-.022.282.285 1.042.835 1.632.383.412.79.64 1.147.64.24 0 .468-.1.696-.3.776-.684.998-3.445.475-5.908-.367-1.722-.914-2.464-1.272-2.577a1.23 1.23 0 0 0-.362-.06c-.965 0-1.374 1.564-1.434 1.823m1.897 7.896c-.612 0-1.23-.32-1.79-.918-.652-.703-1.11-1.69-1.066-2.295.07-.93.084-4.696.084-4.735l.01-.082c.02-.106.524-2.565 2.3-2.565.202 0 .412.033.625.1 1.1.346 1.64 2.172 1.864 3.23.528 2.484.444 5.692-.75 6.746-.39.344-.82.518-1.277.518" fill="#1A1918"/><path d="M96.59 163.857s.173-1.06 2.118-1.393c1.947-.333 2.14 2.463 2.14 2.463s.62 4.09-1.48 4.658c-2.1.568-1.977-3.784-2.777-5.728" fill="#FFF"/><path d="M97.056 163.845c.225.61.372 1.367.526 2.164.29 1.495.62 3.19 1.43 3.19a.957.957 0 0 0 .242-.038c1.676-.454 1.168-4.133 1.163-4.17l-.004-.035c-.002-.02-.166-2.083-1.392-2.083l-.236.02c-1.257.216-1.626.736-1.728.95m1.956 6.23c-1.533 0-1.934-2.07-2.29-3.897-.16-.825-.31-1.603-.537-2.154l-.046-.114.02-.124c.008-.055.247-1.37 2.475-1.754.13-.02.26-.032.386-.032 1.978 0 2.243 2.61 2.265 2.878.05.343.595 4.48-1.803 5.13a1.85 1.85 0 0 1-.47.065M15.258 93.03c-.063-.1-.215-.036-.187.078 1.108 4.583 2.05 8.697 1.71 13.456-.172 2.437-.72 4.852-1.42 7.186-.676 2.26-1.82 4.396-2.19 6.735-.12.763.773 1.487 1.4.815 3.23-3.46 4.117-9.334 4.262-13.897.154-4.782-1.025-10.302-3.574-14.374M132.66 119.01c-.742-4.55-2.683-8.942-3.785-13.43-1.08-4.396 1.09-8.832 0-13.228-.012-.054-.085-.038-.09.012-.403 4.862-1.97 9.372-1.69 14.304.244 4.355 1.917 9.185 3.73 13.116.513 1.115 2.005.26 1.836-.774" fill="#1A1918"/><path d="M72.04 39.23a.31.31 0 0 0 .168-.266c.072-2.574-.065-5.15-.196-7.72-.06-1.2.176-2.786-.113-4.094a12.1 12.1 0 0 0-.16-1.724l-.008-.062-.004-.034-.004.003c-.113-.562-.54-1.038-1.29-1.01h-.03a1.186 1.186 0 0 0-.4.063l-.3.085c-1.81-.88-4.196-.59-6.265-.49a6.16 6.16 0 0 0-.836.03c-.816.086-1.295.674-1.424 1.31-2.225-1.016-4.538-1.424-6.096-.175-.415.333-.377 1.09 0 1.43 1.257 1.133 2.972.873 4.564 1.3 2.06.55 3.93 1.756 5.553 3.105 3.128 2.6 5.555 6.358 7.01 10.146l.038-.006a18.62 18.62 0 0 0-.21-1.89m1.747 0a.31.31 0 0 1-.17-.266c-.07-2.574.066-5.15.196-7.72.06-1.2-.174-2.786.115-4.094.007-.564.065-1.132.158-1.724l.008-.062.006-.034.003.003c.113-.562.54-1.038 1.29-1.01h.03c.134-.006.27.022.4.063l.3.085c1.81-.88 4.195-.59 6.264-.49a6.16 6.16 0 0 1 .836.03c.816.086 1.295.674 1.423 1.31 2.226-1.016 4.54-1.424 6.096-.175.414.333.376 1.09 0 1.43-1.258 1.133-2.973.873-4.564 1.3-2.06.55-3.932 1.756-5.554 3.105-3.126 2.6-5.554 6.358-7.008 10.146l-.038-.006c.037-.64.11-1.27.21-1.89" fill="#B01368"/><path d="M131.92 97.903c-3.774 13.917-2.513 18.472-1.99 19.598.26.81 1.856 6.36-.948 11.294-1.164 2.05-2.948 3.73-5.323 5.032-.698.25-1.407.474-2.15.637-2.456.54-5.005.444-7.5.56-4.55.212-7.95 1.256-11.756 3.77l.018.044c2.08-.824 4.155-1.57 6.342-2.05 2.14-.47 4.376-.275 6.565-.21-7.362 1.726-12.028 4.655-14.24 8.93-2.03 3.917-1.526 8.002-1.12 11.287l.008.07.09.76-26.897.183-26.905-.183.1-.83c.405-3.283.908-7.368-1.12-11.288-1.948-3.763-5.803-6.48-11.718-8.254 3.476.026 7.07.155 10.125 1.924l.043-.054c-2.158-2.36-6.136-3.218-9.157-3.7-2.35-.376-4.77-.11-7.123-.522-1.977-.345-3.804-1.158-5.755-1.583-1.94-1.22-3.432-2.724-4.45-4.51-2.803-4.92-1.213-10.493-.956-11.308.524-1.128 1.782-5.687-1.99-19.597-2.44-8.995-2.672-18.624-.675-27.84 2.12-9.784 6.572-18.825 13.236-26.874 12.405-14.982 30.138-17.394 44.65-17.554l.095-.014c-.09 3.53.022 7.074.052 10.604.034 3.75-.266 7.785.577 11.47-1.608 1.59-2.883-.944-3.708-2.252-.938-1.486-1.695-3.082-2.456-4.662-2.257-4.697-7.073-7.415-12.033-8.253-6.127-1.036-19.31 1.134-17.727 9.693.02.11.186.08.187-.025.053-5.006 4.947-7.26 9.173-8.133 4.84-1 10.422-.06 14.496 2.754 3.802 2.625 4.824 7.254 7.253 10.91 1.028 1.546 3.055 3.15 4.523 2.654-.08 1.786.055 3.62.046 5.37-.01 2.053.098 4.012.32 5.993-1.342-.287-2.503-.65-3.704-1.933-1.682-1.79-2.697-4.32-3.607-6.563-1.688-4.16-2.768-9.07-6.27-12.14-3.762-3.297-12.19-5.482-15.585-.407-1.164 1.74-1.512 3.92-.42 5.785.808 1.373 2.34.958 2.96-.268.04-.077-.037-.145-.112-.112-1.72.762-2.126-.644-2.13-2.025-.003-1.808 1.172-3.095 2.638-3.976 2.854-1.715 6.754-.733 9.422.81 3.67 2.122 4.943 6.3 6.322 10.04 1.23 3.335 2.41 6.937 4.71 9.716 1.37 1.656 3.72 3.387 6.014 3.333l-.014.285c-3.164 2.08-6.5-.016-8.604-2.78-1.818-2.39-1.89-5.534-2.607-8.338-.937-3.66-3.86-5.94-7.554-6.363-3.023-.347-5.234 2.72-3.567 5.39 1.005 1.605 5.08 2.465 4.898-.3l-.05-.013c-1.355 2.5-4.782.172-4.408-2.142.39-2.413 3.177-2.08 4.864-1.546 4.332 1.373 4.778 5.588 5.467 9.47.59 3.334 2.512 5.952 5.32 7.786 2.132 1.39 4.9 1.662 6.674-.08 1.774 1.742 4.543 1.47 6.675.08 2.808-1.834 4.73-4.452 5.32-7.785.688-3.882 1.136-8.097 5.467-9.47 1.685-.536 4.473-.868 4.864 1.545.374 2.314-3.053 4.642-4.408 2.142l-.05.014c-.183 2.765 3.893 1.905 4.897.298 1.667-2.668-.543-5.735-3.567-5.39-3.694.424-6.617 2.703-7.552 6.364-.717 2.804-.79 5.947-2.61 8.337-2.103 2.764-5.438 4.86-8.602 2.78l-.015-.284c2.292.054 4.644-1.677 6.014-3.333 2.3-2.78 3.48-6.38 4.71-9.716 1.378-3.74 2.65-7.918 6.32-10.04 2.67-1.543 6.568-2.525 9.423-.81 1.467.88 2.642 2.168 2.637 3.976-.004 1.38-.41 2.787-2.13 2.025-.073-.033-.15.035-.11.112.62 1.226 2.152 1.64 2.958.268 1.094-1.864.745-4.046-.418-5.785-3.394-5.075-11.824-2.89-15.586.408-3.5 3.07-4.58 7.98-6.27 12.14-.91 2.243-1.925 4.773-3.606 6.564-1.307 1.394-2.563 1.704-4.058 2.008l-.01-.357c.206-1.573.358-3.14.4-4.77.052-2.057.294-4.244.212-6.354 1.475.63 3.585-1.022 4.64-2.61 2.43-3.656 3.45-8.285 7.253-10.91 4.073-2.814 9.655-3.754 14.496-2.755 4.225.873 9.12 3.127 9.173 8.133 0 .105.166.134.185.025 1.582-8.56-11.6-10.73-17.727-9.694-4.96.837-9.776 3.555-12.034 8.252-.76 1.58-1.517 3.176-2.454 4.662-.818 1.296-2.078 3.788-3.664 2.29.798-3.394.66-7.072.8-10.532.157-3.877.42-7.78.34-11.664l.34.103c14.45.194 32.01 2.68 44.323 17.55 6.663 8.048 11.116 17.09 13.236 26.872 1.997 9.217 1.763 18.846-.677 27.84m3.5-28.45c-2.22-10.24-6.873-19.696-13.836-28.104-13.657-16.494-33.13-18.61-48.566-18.61-15.438 0-34.91 2.116-48.568 18.61-6.96 8.408-11.615 17.862-13.835 28.103-2.094 9.668-1.848 19.77.712 29.21 3.167 11.684 2.636 16.673 2.152 17.636l-.08.18c-.103.296-2.496 7.347 1.14 13.745 1.725 3.035 4.483 5.378 8.226 7.01.425 1.786 1.87 3.12 3.112 4.45l.03-.023c-.54-.702-.908-1.544-1.327-2.324-.27-.51-.41-1.033-.497-1.57 1.438.533 3.003.973 4.696 1.316 16.3 3.305 15.34 11.1 14.568 17.366-.11.903-.216 1.756-.255 2.54l-.076 1.505 29.996.205h.007l29.997-.204-.075-1.504c-.04-.784-.144-1.637-.256-2.545-.77-6.26-1.73-14.055 14.57-17.36 6.9-1.4 11.693-4.38 14.24-8.86 3.64-6.41 1.242-13.45 1.138-13.747l-.08-.187c-.476-.94-1.014-5.942 2.155-17.627 2.557-9.443 2.803-19.542.71-29.21" fill="#000"/><path d="M47.033 157.203s-.227-2.504-1.557-2.974c-1.33-.47-2.043.667-1.945 3.25.098 2.584.39 4.386 2.725 4.652l.778-4.93" fill="#FFF"/><path d="M44.93 154.564a.585.585 0 0 0-.45.19c-.22.23-.58.887-.51 2.71.102 2.754.464 4.02 2.335 4.232l.12.008c.19 0 .322-.06.424-.197.528-.71.135-2.94-.236-4.178l-.016-.087c-.057-.62-.397-2.294-1.267-2.6a1.226 1.226 0 0 0-.4-.08m1.494 8.016l-.218-.014c-2.713-.31-3.015-2.478-3.113-5.07-.06-1.636.194-2.764.757-3.348.44-.458 1.07-.578 1.773-.332 1.487.526 1.796 2.864 1.842 3.304.155.526 1.017 3.66.086 4.91-.267.36-.657.55-1.126.55" fill="#000"/><path d="M73.01 160.55s.083 1.654-1.36 1.654h-5.84s-1.653-.004-1.166-2.726c.486-2.72 1.74-7 4.18-7 4.27 0 4.186 8.072 4.186 8.072" fill="#FFF"/><path d="M68.824 152.917c-1.89 0-3.176 3.43-3.75 6.64-.16.9-.087 1.565.213 1.925a.79.79 0 0 0 .524.284h5.84c.27 0 .473-.075.62-.23.272-.285.31-.805.304-.964 0-.075.023-4.92-1.915-6.875-.52-.525-1.12-.78-1.836-.78m2.825 9.724h-5.84a1.64 1.64 0 0 1-1.195-.597c-.48-.573-.614-1.46-.404-2.64.397-2.214 1.64-7.36 4.612-7.36.95 0 1.775.35 2.46 1.04 2.192 2.215 2.167 7.26 2.165 7.472.005.074.032.98-.544 1.586-.312.328-.746.5-1.255.5" fill="#000"/><path d="M59.456 157.34s.226-3.013-1.915-4.86c-2.14-1.848-2.82 1.554-2.82 2.917 0 1.36-.292 6.028.583 6.807.876.777 4.026 0 4.153-4.863" fill="#FFF"/><path d="M56.4 152.38c-.758 0-1.242 1.787-1.242 3.017l-.018.91c-.034 1.384-.126 5.053.454 5.57.106.093.303.15.528.15 1.116 0 2.806-1.25 2.897-4.697.002-.05.177-2.844-1.766-4.52-.326-.282-.62-.43-.853-.43m-.278 10.522c-.446 0-.84-.132-1.11-.37-.74-.66-.834-2.79-.747-6.246a36 36 0 0 0 .017-.89c0-1.01.39-3.892 2.12-3.892.45 0 .93.217 1.424.645 2.283 1.967 2.077 5.092 2.067 5.223-.114 4.37-2.517 5.53-3.77 5.53" fill="#000"/><path d="M64.98 157.912s.83-4.947-.92-6.113c-1.752-1.17-5.84 6.125-5.157 9.528 0 0 5.536 3.28 6.076-3.416" fill="#FFF"/><path d="M59.3 161.044c.39.2 1.382.65 2.394.65 1.687 0 2.645-1.284 2.85-3.817l.004-.037c.302-1.806.37-4.943-.732-5.677a.3.3 0 0 0-.174-.052c-.13 0-.625.083-1.485 1.13-1.628 1.986-3.148 5.67-2.858 7.804m2.394 1.525c-1.538 0-2.955-.83-3.014-.865l-.168-.1-.04-.19c-.478-2.4 1.2-6.525 3.008-8.73.79-.96 1.517-1.45 2.162-1.45.24 0 .463.067.66.2 1.91 1.273 1.214 5.914 1.113 6.53-.313 3.805-2.196 4.604-3.72 4.604" fill="#000"/><path d="M54.673 157.203l-1.413-2.974s-1.46-1.654-1.654.39c-.194 2.04-.876 4.86-.876 4.86s-.583 1.848 1.168 1.848 3.02.696 2.775-4.125" fill="#FFF"/><path d="M52.23 154.035c-.008 0-.138.098-.188.625-.195 2.05-.86 4.805-.886 4.923l-.008.028c-.053.174-.16.74.06 1.036.12.162.35.245.69.245l.613.02.48.016c.425 0 .65-.066.81-.233.385-.405.53-1.51.44-3.38l-1.346-2.836c-.207-.216-.514-.442-.663-.442m.76 7.766l-.52-.016a11.878 11.878 0 0 0-.57-.017c-.79 0-1.197-.33-1.4-.605-.497-.677-.243-1.628-.193-1.798.05-.206.68-2.87.863-4.786.117-1.234.714-1.418 1.06-1.418.638 0 1.244.65 1.36.78l.04.047 1.476 3.107.004.087c.116 2.267-.086 3.497-.673 4.115-.424.445-.97.506-1.446.506" fill="#000"/><path d="M51.162 157.48s-.723-1.792-1.892-2.765c-1.167-.97-2.14-.373-2.237 2.488-.097 2.86.123 4.433 2.065 4.16 1.94-.273 1.823-2.542 2.064-3.883" fill="#FFF"/><path d="M48.32 154.72c-.353 0-.786.655-.85 2.5-.06 1.727 0 2.98.48 3.478.108.11.303.258.74.258l.346-.025c1.187-.166 1.406-1.245 1.587-2.75l.086-.645c-.174-.39-.81-1.726-1.72-2.483-.256-.214-.495-.332-.67-.332m.37 7.11c-.57 0-1.03-.176-1.37-.526-.7-.722-.795-2.057-.724-4.115.094-2.765.99-3.345 1.723-3.345.39 0 .806.18 1.23.535 1.238 1.032 1.986 2.86 2.018 2.937l.047.116-.022.125c-.04.216-.068.463-.1.725-.155 1.29-.39 3.24-2.335 3.514-.164.023-.32.034-.468.034" fill="#000"/><path d="M99 157.203s.23-2.504 1.558-2.974c1.33-.47 2.043.667 1.946 3.25-.097 2.584-.39 4.386-2.725 4.652l-.78-4.93" fill="#FFF"/><path d="M101.104 154.564c-.118 0-.252.026-.4.078-.87.307-1.215 2.024-1.267 2.6l-.017.087c-.37 1.238-.762 3.47-.234 4.177.122.163.293.218.545.19 1.87-.213 2.233-1.48 2.336-4.233.07-1.823-.29-2.48-.51-2.71a.59.59 0 0 0-.45-.19m-1.494 8.015c-.47 0-.86-.19-1.128-.55-.93-1.25-.07-4.384.085-4.91.045-.44.354-2.778 1.842-3.304.703-.246 1.333-.125 1.772.332.565.585.82 1.712.757 3.35-.096 2.59-.397 4.76-3.11 5.07a1.898 1.898 0 0 1-.218.01" fill="#000"/><path d="M73.024 160.55s-.082 1.654 1.362 1.654h5.838s1.654-.004 1.167-2.726c-.485-2.72-1.74-7-4.18-7-4.27 0-4.186 8.072-4.186 8.072" fill="#FFF"/><path d="M77.212 152.917c-.716 0-1.317.255-1.837.78-1.938 1.955-1.914 6.8-1.914 6.85-.006.197.035.71.307.992.146.15.35.226.62.226h5.83a.79.79 0 0 0 .54-.297c.292-.363.363-1.025.203-1.914-.574-3.21-1.86-6.64-3.748-6.64m3.013 9.725h-5.84c-.51 0-.943-.172-1.255-.5-.576-.605-.55-1.51-.544-1.61-.003-.188-.028-5.232 2.165-7.448.686-.69 1.513-1.04 2.46-1.04 2.974 0 4.216 5.147 4.612 7.36.21 1.18.076 2.068-.404 2.64a1.638 1.638 0 0 1-1.193.6" fill="#000"/><path d="M86.577 157.34s-.224-3.013 1.917-4.86c2.14-1.848 2.82 1.554 2.82 2.917 0 1.36.293 6.028-.583 6.807-.875.777-4.024 0-4.153-4.863" fill="#FFF"/><path d="M89.633 152.38c-.232 0-.527.15-.853.43-1.942 1.676-1.767 4.47-1.766 4.5.093 3.466 1.784 4.717 2.9 4.717.223 0 .42-.057.526-.15.58-.517.49-4.186.455-5.57l-.018-.91c0-1.23-.484-3.018-1.244-3.018m.28 10.522c-1.255 0-3.657-1.16-3.772-5.55-.01-.11-.214-3.235 2.067-5.204.495-.427.974-.644 1.426-.644 1.73 0 2.12 2.883 2.12 3.893l.016.89c.086 3.456-.008 5.586-.748 6.244-.27.24-.663.372-1.11.372" fill="#000"/><path d="M81.055 157.912s-.83-4.947.92-6.113c1.75-1.17 5.837 6.125 5.156 9.528 0 0-5.535 3.28-6.075-3.416" fill="#FFF"/><path d="M82.392 152.11a.3.3 0 0 0-.174.052c-1.103.735-1.034 3.873-.73 5.678l.004.037c.204 2.533 1.163 3.817 2.85 3.817 1.015 0 2.004-.45 2.393-.65.29-2.133-1.23-5.82-2.858-7.804-.86-1.047-1.353-1.13-1.485-1.13m1.95 10.46c-1.527 0-3.408-.8-3.72-4.605-.103-.617-.8-5.257 1.11-6.53.198-.133.42-.2.66-.2.646 0 1.373.49 2.162 1.45 1.807 2.203 3.487 6.33 3.007 8.728l-.038.192-.168.1c-.06.035-1.476.864-3.013.864" fill="#000"/><path d="M91.36 157.203l1.415-2.974s1.46-1.654 1.653.39c.195 2.04.876 4.86.876 4.86s.584 1.848-1.168 1.848c-1.75 0-3.02.696-2.775-4.125" fill="#FFF"/><path d="M91.795 157.312c-.09 1.87.053 2.976.437 3.38.16.168.39.234.812.234l.48-.015.612-.02c.34 0 .572-.082.692-.246.223-.304.103-.892.058-1.033l-.008-.027c-.028-.118-.69-2.873-.886-4.923-.05-.527-.18-.624-.18-.625-.166 0-.484.245-.67.44l-1.347 2.837zm1.25 4.49c-.478 0-1.023-.06-1.447-.507-.588-.618-.788-1.85-.673-4.114l.004-.085 1.476-3.108.04-.047c.116-.13.72-.78 1.358-.78.345 0 .942.184 1.06 1.418.183 1.917.814 4.58.862 4.786.052.17.304 1.12-.192 1.798-.202.275-.61.605-1.398.605l-.57.017-.522.017z" fill="#000"/><path d="M94.872 157.48s.724-1.792 1.89-2.765c1.17-.97 2.142-.373 2.24 2.488.096 2.86-.124 4.433-2.065 4.16-1.942-.273-1.823-2.542-2.065-3.883" fill="#FFF"/><path d="M95.326 157.535l.084.644c.182 1.505.402 2.583 1.588 2.75l.346.026c.438 0 .63-.148.74-.26.48-.496.54-1.75.48-3.478-.064-1.844-.497-2.498-.85-2.498-.175 0-.413.118-.67.33-.908.76-1.546 2.095-1.718 2.485m2.018 4.297c-.146 0-.304-.012-.47-.036-1.943-.272-2.177-2.223-2.333-3.513-.03-.263-.06-.51-.1-.725l-.02-.124.046-.117c.03-.078.78-1.906 2.016-2.937.427-.354.84-.534 1.233-.534.735 0 1.63.58 1.723 3.343.07 2.058-.026 3.392-.725 4.115-.338.35-.8.527-1.37.527" fill="#000"/><path d="M21.282 117.574c-.45 0-.772.35-.822.747-.112.31.003.725.303.863.49.225.943.088 1.244-.346.372-.537-.125-1.263-.725-1.263m.83 4.802c-2.378 0-2.378 3.685 0 3.685s2.378-3.684 0-3.684m4.978 3.79c-1.017 0-1.867.85-1.867 1.867s.85 1.866 1.867 1.866a1.884 1.884 0 0 0 1.867-1.867 1.884 1.884 0 0 0-1.867-1.866m6.472 1.837c-2.393 0-2.393 3.71 0 3.71s2.393-3.71 0-3.71m6.805.093c-2.273 0-2.273 3.522 0 3.522 2.272 0 2.272-3.523 0-3.523m6.803-.99c-1.836 0-1.836 2.847 0 2.847s1.836-2.846 0-2.846m6.395-.655l-.084-.083c-.583-.58-1.612-.16-1.612.668 0 .827 1.03 1.247 1.613.668l.085-.082a.837.837 0 0 0 0-1.17m4.263-2.967c-.474-.154-.96.255-.96.73 0 .34.217.598.5.7.112.097.25.156.423.156.276 0 .624-.208.666-.506.068-.5-.13-.917-.628-1.08m3.282-2.442c-1.098 0-1.098 1.703 0 1.703 1.1 0 1.1-1.703 0-1.703" fill="#B01368"/><path d="M73.972 102.195c-.22-1.326-.797-2.582-1.14-3.88-.027-.105-.182-.105-.21 0-.343 1.298-.922 2.554-1.14 3.88-.214 1.302-.29 2.628-.347 3.944-.09 2.052 3.274 2.052 3.185 0-.058-1.317-.135-2.643-.348-3.945" fill="#000"/><path d="M123.486 118.837c.3.434.755.57 1.246.346.3-.138.415-.554.302-.862-.05-.397-.372-.746-.822-.746-.6 0-1.098.727-.726 1.263m-.104 3.54c2.38 0 2.38 3.684 0 3.684-2.377 0-2.377-3.684 0-3.684m-4.978 3.79c1.017 0 1.867.85 1.867 1.867s-.85 1.866-1.866 1.866a1.884 1.884 0 0 1-1.867-1.867c0-1.016.85-1.866 1.867-1.866m-6.472 1.837c2.392 0 2.392 3.71 0 3.71-2.394 0-2.394-3.71 0-3.71m-6.804.093c2.272 0 2.272 3.522 0 3.522s-2.272-3.523 0-3.523m-6.805-.99c1.836 0 1.836 2.847 0 2.847s-1.836-2.846 0-2.846m-6.393-.655l.084-.083c.584-.58 1.613-.16 1.613.668 0 .827-1.03 1.247-1.613.668l-.084-.082a.835.835 0 0 1 0-1.17m-4.89-1.887c.04.298.387.506.663.506.173 0 .31-.06.42-.155a.737.737 0 0 0 .504-.7c0-.475-.487-.885-.96-.73-.498.162-.698.578-.628 1.08m-2.656-3.523c1.1 0 1.1 1.703 0 1.703-1.098 0-1.098-1.703 0-1.703" fill="#B01368"/><path d="M61.2 178.337c-.436-.16-1.067.012-1.37.36-1.57 1.82 1.32 2.46 2.416 3.2 2.115 1.423 2.797 3.897 3.39 6.213.033.132.2.108.242 0 1.455-3.587-1.226-8.517-4.68-9.773m7.956-1.264c-.667-1.76-3.53-.938-2.812.775.44 1.05.683 2.176 1.146 3.213.64 1.434.56 2.68.564 4.196 0 .185.275.278.363.1.63-1.3.776-2.732 1.208-4.105.425-1.355.018-2.896-.47-4.177m15.25 1.264c.437-.16 1.068.012 1.37.36 1.57 1.82-1.318 2.46-2.415 3.2-2.116 1.423-2.798 3.897-3.39 6.213-.034.132-.2.108-.244 0-1.452-3.587 1.228-8.517 4.68-9.773m-7.956-1.264c.668-1.76 3.532-.938 2.814.775-.442 1.05-.684 2.176-1.147 3.213-.64 1.434-.558 2.68-.563 4.196 0 .185-.276.278-.363.1-.63-1.3-.777-2.732-1.21-4.105-.424-1.355-.017-2.896.468-4.177M55.87 136.096c-.458-1.472-1.992-3.335-3.42-3.967-2.076-.917-5.703-.83-5.763 2.206-.025 1.29 1.17 1.907 2.292 1.745.695-.1 1.134-.545 1.665-.957.394-.307 1-.23 1.455-.325 1.25-.256 2.627.587 3.36 1.536.154.2.48-.017.41-.238m1.475-8.936c-.964.59-1.657 1.625-1.558 2.784.083.98.546 1.82.7 2.773.024.158.244.126.288 0 .507-1.495 1.64-2.352 2.52-3.61.833-1.193-.778-2.667-1.95-1.948m32.15 8.936c.457-1.472 1.992-3.335 3.42-3.967 2.075-.917 5.702-.83 5.763 2.206.025 1.29-1.17 1.907-2.293 1.745-.696-.1-1.135-.545-1.666-.957-.395-.307-1-.23-1.455-.325-1.25-.256-2.627.587-3.36 1.536-.155.2-.48-.017-.41-.238m-1.475-8.936c.963.59 1.657 1.625 1.558 2.784-.084.98-.546 1.82-.7 2.773-.024.158-.244.126-.288 0-.507-1.495-1.64-2.352-2.52-3.61-.833-1.193.777-2.667 1.95-1.948" fill="#000"/><path d="M43.567 170.123c-.535-.626-2.126-.99-2.85-.445a7.6 7.6 0 0 1-.246.174c.02-.82-.224-1.622-.87-2.24-.982-.94-2.252.436-1.453 1.45.197.25.345.56.46.894-.58-.305-1.27-.388-1.924-.285-.592.095-1.005.764-1.005 1.32 0 .71.624 1.417 1.37 1.37.225-.016.45-.046.672-.09-.213.042.236.008.228.008l.666.005.16.024c-.202.243-.524.47-.72.634-.483.408-.722 1.28-.776 1.865-.114 1.25 1.854 1.467 2.155.292.254-.993.57-1.96.384-2.987l.02-.038.144.186c.205.22.456.384.64.624.405.528.168 1.284.536 1.83.31.46 1.123.592 1.4 0 .457-.976-.183-1.797-.79-2.522a3.635 3.635 0 0 0-.363-.366c.142.002.285-.002.42.018.464.07.786.158 1.266.09.88-.122.94-1.268.477-1.81m-4.03-7.93c-.373-.435-1.483-.69-1.987-.31l-.172.123c.013-.573-.157-1.132-.608-1.564-.684-.655-1.57.306-1.013 1.013.14.175.24.392.32.624-.403-.213-.886-.27-1.34-.2-.413.067-.7.533-.7.92 0 .496.434.99.954.956.158-.01.315-.032.47-.06-.15.03.164.004.16.004l.464.002.11.017c-.14.17-.365.326-.502.44-.336.286-.502.893-.54 1.3-.08.874 1.292 1.025 1.502.204.177-.69.398-1.366.267-2.08l.015-.027.1.13c.145.15.32.266.447.434.283.37.117.896.374 1.277.215.32.784.412.976 0 .318-.68-.128-1.253-.55-1.76a2.49 2.49 0 0 0-.254-.255l.294.013c.323.05.547.11.883.064.615-.086.654-.887.332-1.264m62.673 7.93c.535-.626 2.125-.99 2.85-.445l.246.174c-.02-.82.225-1.622.87-2.24.983-.94 2.252.436 1.454 1.45-.2.25-.346.56-.46.894.58-.305 1.27-.388 1.924-.285.592.095 1.004.764 1.004 1.32 0 .71-.624 1.417-1.37 1.37a5.162 5.162 0 0 1-.67-.09c.212.042-.238.008-.23.008l-.666.005-.158.024c.2.243.523.47.72.634.48.408.72 1.28.774 1.865.115 1.25-1.853 1.467-2.154.292-.254-.993-.57-1.96-.385-2.987l-.02-.038a1.657 1.657 0 0 1-.144.186c-.205.22-.456.384-.64.624-.405.528-.167 1.284-.535 1.83-.308.46-1.124.592-1.4 0-.456-.976.184-1.797.79-2.522.112-.133.237-.25.364-.366-.142.002-.286-.002-.423.018-.46.07-.782.158-1.262.09-.883-.122-.94-1.268-.478-1.81m4.03-7.93c.372-.435 1.482-.69 1.986-.31l.172.123c-.013-.573.158-1.132.608-1.564.685-.655 1.57.306 1.013 1.013a2.1 2.1 0 0 0-.32.624c.402-.213.884-.27 1.34-.2.413.067.7.533.7.92 0 .496-.434.99-.954.956a3.667 3.667 0 0 1-.47-.06c.15.03-.164.004-.158.004l-.465.002-.11.017c.14.17.364.326.5.44.337.286.504.893.54 1.3.08.874-1.29 1.025-1.5.204-.178-.69-.398-1.366-.27-2.08l-.013-.027a.973.973 0 0 1-.1.13c-.143.15-.318.266-.446.434-.282.37-.117.896-.374 1.277-.215.32-.783.412-.977 0-.318-.68.13-1.253.55-1.76l.255-.255-.294.013c-.323.05-.547.11-.882.064-.615-.086-.656-.887-.333-1.264" fill="#E78B2D"/><path d="M93.813 190.987c-11.09 4.666-20.792 3.5-20.795 3.5-.004 0-9.705 1.166-20.795-3.5a79.12 79.12 0 0 1-4.542-2.062c.444.793 23.444 41.58 53.24-.014h-2.54a78.884 78.884 0 0 1-4.567 2.077M71.446 69.37c-.22 1.516-.056 2.69.257 4.17.31 1.46.563 3.03 1.01 4.452.057.173.304.176.358 0 .383-1.267.426-2.613.747-3.9.32-1.286.67-2.516.854-3.832.295-2.104-2.915-3.022-3.224-.89" fill="#000"/><path d="M49.666 60.23c-.468.206-1.076.157-1.57.23-.752.114-1.51.247-2.235.482-.73.237-1.593.536-2.133 1.116-.56.602-.546 1.185-.58 1.95a.29.29 0 0 1-.08.184l1.103.59.303.158c1.21-.292 2.246-.72 3.202-1.65.96-.935 1.524-1.894 1.99-3.06m-6.635 5.973l-.523-.25c-.156 3.374.748 7.43 4.137 8.573 1.174-3.09-1.028-6.423-3.615-8.323m.57-9.563c-1.253.132-2.614-.07-3.838.01-1.83.122-3.695.65-5.037 1.915.523.467 1.065.91 1.615 1.338 1.63.186 3.242.06 4.72-.82 1.104-.656 1.768-1.57 2.54-2.442m-19.248 3.137c-.09 2.215.888 3.952 1.202 5.988 3.393-2.395 3.604-8.29 2.373-12.01-2.083 1.39-3.464 3.322-3.575 6.022m31.555 7.37c.815-.815 1.187-1.73 1.6-2.716-.693.573-2.21.868-2.767 1.094-1.517.62-2.886 1.416-2.945 3.064 1.536.13 2.98-.31 4.112-1.442M40.47 51.576c-3.83-2.388-7.65-3.61-11.222-.14.24.482.496.952.766 1.417 3.514 1.74 6.977.022 10.457-1.276M32.97 63.36c-.224 1.156-.293 2.383-.01 3.54.31 1.27.78 2.683 1.738 3.626.404.396.87.717 1.31 1.066 2.12-3.166.014-7.152-2.112-10.044-.397.534-.78 1.066-.926 1.812m32.07 16.28c.183 1.09.178 2.2.4 3.28.238 1.178.814 2.055 1.663 2.8.086-.397.24-.764.23-1.202-.016-.764-.157-1.52-.51-2.207-.488-.946-1.12-1.835-1.783-2.67M52.31 70.282l-1.04-.443c.525 1.383.26 3.004.95 4.41.67 1.367 1.71 2.467 3.1 3.063.95-1.767-.623-5.087-2.12-6.63l-.89-.4m8.156 3.857c1.92.018 3.266-1.036 4.35-2.543-1.563.145-4.72.41-4.485 2.434l.136.11m-.006 1.144c-.322.816-.65 1.672-.583 2.555.076.995.436 1.947.928 2.81a.23.23 0 0 1 .03.095c.807-.756 1.225-1.718.996-2.88-.215-1.095-.756-1.757-1.37-2.58" fill="#38A25C"/><path d="M67.1 85.72c-.848-.745-1.424-1.622-1.664-2.8-.22-1.08-.215-2.19-.4-3.282.663.836 1.296 1.726 1.783 2.674.353.687.494 1.442.51 2.205.01.44-.144.806-.23 1.204m-6.264-4.975a.25.25 0 0 0-.03-.095c-.493-.863-.853-1.815-.93-2.81-.066-.885.26-1.74.584-2.556.614.824 1.155 1.486 1.37 2.58.23 1.163-.188 2.126-.994 2.88m3.98-9.147c-1.084 1.508-2.43 2.56-4.35 2.544l-.134-.11c-.238-2.023 2.92-2.29 4.483-2.433m-9.494 5.717c-1.39-.597-2.43-1.697-3.1-3.063-.69-1.406-.425-3.027-.95-4.41l1.04.443.892.4c1.495 1.543 3.07 4.864 2.12 6.63m-.582-11.79c.558-.225 2.074-.52 2.766-1.092-.412.986-.784 1.902-1.6 2.717-1.13 1.13-2.575 1.57-4.11 1.44.058-1.646 1.427-2.443 2.944-3.063m-10.267-.584l-.303-.157-1.102-.59a.29.29 0 0 0 .08-.184c.033-.767.02-1.35.58-1.952.54-.58 1.4-.88 2.133-1.116.726-.235 1.485-.368 2.236-.48.494-.075 1.102-.026 1.57-.232-.467 1.166-1.03 2.125-1.99 3.06-.957.93-1.994 1.357-3.203 1.65m2.17 9.586c-3.39-1.14-4.292-5.2-4.136-8.572l.522.25c2.586 1.9 4.788 5.23 3.614 8.322M36.34 59.903a31.16 31.16 0 0 1-1.615-1.338c1.342-1.264 3.207-1.792 5.037-1.915 1.224-.082 2.584.123 3.84-.01-.774.873-1.437 1.787-2.54 2.443-1.48.878-3.09 1.006-4.722.82m-.335 11.688c-.44-.347-.905-.668-1.31-1.064-.958-.943-1.427-2.358-1.738-3.628-.282-1.155-.213-2.38.01-3.538.146-.746.53-1.278.927-1.813 2.126 2.893 4.23 6.88 2.11 10.044M29.25 51.437c3.572-3.47 7.392-2.248 11.223.14-3.48 1.3-6.942 3.017-10.456 1.276-.27-.464-.527-.934-.766-1.416m-3.694 14.33c-.314-2.037-1.293-3.774-1.202-5.99.11-2.7 1.492-4.63 3.576-6.02 1.23 3.72 1.02 9.614-2.374 12.01m42.262 17.043c-.57-1.388-1.684-2.42-2.808-3.357l-.014-.082c-.025-.125-.142-.18-.255-.17-.668-1.526-1.805-2.88-3.123-4.08 1.828-.124 3.308-1.983 4.1-3.64a.343.343 0 0 0-.224-.495.37.37 0 0 0-.286-.255c-1.23-.3-2.788.353-3.867.893-.83.415-1.475 1.11-1.594 1.958-1.073-.8-2.176-1.52-3.187-2.157a63.665 63.665 0 0 0-2.953-1.74c.857-.107 1.705-.488 2.38-1.035 1.303-1.054 2.97-3.132 2.13-4.897-.05-.106-.22-.115-.293-.027a.194.194 0 0 0-.08-.08c-.59-.27-1.345.307-1.885.52-.937.374-1.877.73-2.757 1.224-1.21.68-2.028 1.756-1.847 3.022-1.835-.963-3.692-1.883-5.533-2.824 2.12-.513 3.567-2.73 4.308-4.865.03-.384.004-.764-.127-1.113a.556.556 0 0 1-.01.03l-.067-.06c-.663-.285-1.54-.023-2.236.082-.972.145-1.963.37-2.865.77-1.342.593-2.75 1.896-2.23 3.452-1.602-.885-3.168-1.826-4.658-2.87a5.617 5.617 0 0 0 2.995-.47c1.592-.728 3.473-2.468 3.99-4.242.077-.1.105-.23.083-.35v-.005c.035-.184-.115-.316-.27-.285l-.012-.006c-1.85-.45-4.178-.145-6.035.213-1.863.358-3.033 1.234-4.003 2.575a27.36 27.36 0 0 1-1.428-1.38 22.064 22.064 0 0 1-2.477-3.152c3.583 1.704 7.68-.438 11.3-1.9l.09-.06a1.884 1.884 0 0 0-.1-.2l-.317-.535-.023-.027-.094-.11-.01-.018c-2.952-2.74-10.73-4.882-12.45.03-1.366-2.86-2.183-5.983-2.477-9.14-.08-.867-1.497-1.22-1.643-.222-.538 3.66.73 7.46 2.56 10.79a.478.478 0 0 0 .033.263l.016.036c-2.322.938-3.855 3.246-4.33 5.674-.424 2.153-.09 6.108 2.006 7.48l-.017.01c.252.09.5.19.765.21 2.016-.98 2.88-3.956 3.326-5.93.235-1.05.5-2.676.438-4.226.972 1.33 2.09 2.527 3.292 3.63l-.017.016c.158.136.2.4-.04.51a.37.37 0 0 0-.11.063l-.033.014c-1.758 1.32-1.904 4.74-1.623 6.576.287 1.883 2.124 5.775 4.538 5.773.076.04.168.043.264-.016.187-.022.376-.066.567-.137.118-.045.162-.18.073-.277l-.074-.07c2.41-2.46 1.15-7.364-1.05-10.384a40.905 40.905 0 0 0 3.485 2.33c.773.463 1.563.896 2.362 1.315-1.313 3.27 1.9 10.498 4.913 9.94.33-.156.627-.37.882-.633l-.037-.01c1.455-2.078.203-5.026-1.583-7.286 1.734.775 3.484 1.512 5.228 2.25-1.314 1.33-.203 4.21.5 5.574.77 1.49 2.12 2.756 3.767 2.647l.107.03.087-.045c.19-.105.36-.23.527-.38 1.23-1.3-.02-4.284-1.4-6.24 1.648.79 3.25 1.663 4.783 2.674.222.146.427.304.633.46l.005.02v.015a.338.338 0 0 1 .09.293l.02.026-.045.068a.295.295 0 0 1-.057.087c-1.3 1.953-1.243 4.503.646 6.05a.24.24 0 0 0 .122.05l-.046.04-.004.008.017.007c.154.1.34.126.53.115 1.656-.423 1.845-2.76 1.148-4.5.78.876 1.514 1.8 2.31 2.725l-.004.006c-.56 2.643-.51 6.942 2.98 7.253l.13-.08.077-.052.085-.09-.002-.047c.754-.973.463-2.465.02-3.544" fill="#000"/><path d="M95.854 60.23c.468.206 1.076.157 1.57.23.752.114 1.51.247 2.235.482.73.237 1.593.536 2.133 1.116.56.602.546 1.185.58 1.95a.286.286 0 0 0 .08.184c-.367.2-.733.397-1.103.59l-.304.158c-1.208-.292-2.245-.72-3.2-1.65-.964-.935-1.525-1.894-1.992-3.06m6.637 5.973l.523-.25c.155 3.374-.75 7.43-4.137 8.573-1.174-3.09 1.03-6.423 3.615-8.323m-.57-9.563c1.253.132 2.613-.07 3.838.01 1.83.122 3.694.65 5.037 1.915-.523.467-1.065.91-1.615 1.338-1.63.186-3.242.06-4.72-.82-1.106-.656-1.768-1.57-2.54-2.442m19.248 3.137c.092 2.215-.887 3.952-1.202 5.988-3.394-2.395-3.605-8.29-2.373-12.01 2.084 1.39 3.463 3.322 3.575 6.022m-31.555 7.37c-.814-.815-1.187-1.73-1.6-2.716.69.573 2.21.868 2.768 1.094 1.517.62 2.886 1.416 2.945 3.064-1.537.13-2.98-.31-4.112-1.442m15.437-15.57c3.83-2.388 7.65-3.61 11.22-.14-.237.482-.495.952-.764 1.417-3.514 1.74-6.977.022-10.457-1.276m7.502 11.783c.223 1.156.293 2.383.01 3.54-.31 1.27-.78 2.683-1.738 3.626-.404.396-.87.717-1.31 1.066-2.12-3.166-.015-7.152 2.112-10.044.397.534.78 1.066.926 1.812m-32.07 16.28c-.183 1.09-.18 2.2-.4 3.28-.24 1.178-.814 2.055-1.664 2.8-.084-.397-.238-.764-.23-1.202.017-.764.16-1.52.513-2.207.488-.946 1.12-1.835 1.783-2.67m12.727-9.357l1.04-.443c-.526 1.383-.26 3.004-.95 4.41-.67 1.367-1.71 2.467-3.1 3.063-.95-1.767.622-5.087 2.117-6.63l.893-.4m-8.157 3.857c-1.92.018-3.265-1.036-4.347-2.543 1.56.145 4.72.41 4.482 2.434l-.135.11m.007 1.144c.323.816.65 1.672.583 2.555-.077.995-.436 1.947-.928 2.81a.228.228 0 0 0-.03.095c-.807-.756-1.225-1.718-.995-2.88.215-1.095.756-1.757 1.37-2.58" fill="#38A25C"/><path d="M78.19 84.518c.015-.764.157-1.52.51-2.207.488-.946 1.12-1.835 1.783-2.67-.185 1.09-.18 2.2-.4 3.28-.24 1.18-.815 2.056-1.665 2.8-.085-.397-.238-.764-.23-1.202m5.5-6.654c.217-1.094.758-1.756 1.37-2.58.324.816.652 1.672.585 2.555-.077.995-.436 1.946-.93 2.81a.25.25 0 0 0-.03.095c-.805-.755-1.223-1.717-.994-2.88m1.498-3.834l-.135.11c-1.92.018-3.265-1.035-4.348-2.543 1.562.144 4.72.41 4.483 2.434m7.13-3.346l.89-.402 1.043-.442c-.526 1.382-.26 3.004-.95 4.41-.67 1.367-1.71 2.466-3.1 3.063-.95-1.767.622-5.087 2.117-6.63m1.408-2.095c-1.537.13-2.98-.31-4.112-1.442-.815-.814-1.188-1.73-1.6-2.715.69.573 2.21.868 2.768 1.095 1.517.62 2.886 1.415 2.945 3.063m4.12-5.297c-.963-.935-1.524-1.894-1.99-3.06.467.206 1.075.158 1.568.23.753.113 1.51.247 2.236.482.73.237 1.593.535 2.133 1.116.56.6.546 1.185.58 1.95a.29.29 0 0 0 .08.184c-.367.198-.733.397-1.103.59l-.304.158c-1.208-.292-2.245-.72-3.2-1.65m4.645 2.913l.523-.25c.155 3.374-.748 7.432-4.137 8.573-1.174-3.09 1.028-6.423 3.615-8.323m1.97-7.12c-1.106-.656-1.768-1.57-2.54-2.443 1.253.133 2.613-.07 3.838.01 1.83.123 3.694.65 5.037 1.915a31.44 31.44 0 0 1-1.615 1.338c-1.63.186-3.242.06-4.72-.82m7.166 2.465c.397.534.78 1.065.926 1.812.224 1.156.293 2.383.01 3.54-.31 1.27-.78 2.683-1.738 3.626-.403.396-.87.717-1.31 1.066-2.12-3.166-.015-7.152 2.11-10.044m3.882-8.696c-3.514 1.74-6.977.024-10.457-1.275 3.83-2.39 7.65-3.61 11.22-.14-.237.48-.495.95-.764 1.415m2.087.904c2.083 1.39 3.463 3.32 3.575 6.02.092 2.216-.888 3.954-1.202 5.988-3.393-2.394-3.606-8.288-2.373-12.008m-39.87 32.598v.048l.083.09.08.05.13.08c3.488-.31 3.538-4.61 2.977-7.25l-.002-.007c.796-.927 1.53-1.85 2.308-2.723-.696 1.736-.507 4.075 1.148 4.498.19.01.377-.016.53-.116l.018-.006-.003-.007-.046-.04a.23.23 0 0 0 .12-.05c1.89-1.546 1.948-4.098.647-6.05a.333.333 0 0 1-.056-.088l-.044-.067.017-.027a.343.343 0 0 1 .09-.294l.003-.013.005-.022c.206-.155.41-.312.632-.46 1.533-1.01 3.134-1.882 4.783-2.672-1.38 1.955-2.63 4.938-1.402 6.238.168.15.337.277.526.38l.09.044.105-.03c1.645.11 2.996-1.155 3.766-2.646.704-1.365 1.814-4.244.5-5.574 1.745-.738 3.495-1.475 5.228-2.25-1.786 2.26-3.036 5.21-1.582 7.286a.266.266 0 0 0-.038.01c.255.262.553.478.883.633 3.01.558 6.226-6.67 4.915-9.94a48.152 48.152 0 0 0 2.36-1.315 40.988 40.988 0 0 0 3.487-2.33c-2.204 3.02-3.46 7.925-1.053 10.384l-.073.07c-.09.097-.045.232.073.276.192.073.38.117.566.138.097.06.19.057.265.016 2.413.002 4.252-3.89 4.538-5.773.28-1.835.135-5.258-1.624-6.576l-.034-.014a.355.355 0 0 0-.11-.062c-.238-.11-.196-.373-.037-.51l-.017-.016c1.205-1.103 2.32-2.3 3.292-3.63-.06 1.55.204 3.177.44 4.225.442 1.975 1.31 4.952 3.324 5.93.263-.02.513-.118.764-.21a.433.433 0 0 0-.017-.008c2.097-1.374 2.43-5.33 2.008-7.482-.476-2.427-2.01-4.736-4.332-5.674l.017-.036a.476.476 0 0 0 .034-.262c1.83-3.33 3.098-7.13 2.56-10.79-.147-1-1.563-.645-1.644.222-.292 3.158-1.11 6.28-2.476 9.14-1.718-4.912-9.498-2.77-12.45-.03l-.01.02-.094.107a.904.904 0 0 0-.023.028l-.316.535a2.16 2.16 0 0 0-.1.2l.088.06c3.623 1.462 7.72 3.604 11.302 1.9a22.05 22.05 0 0 1-2.477 3.15c-.46.484-.94.94-1.428 1.382-.97-1.34-2.14-2.217-4.003-2.575-1.857-.358-4.186-.664-6.036-.213l-.013.006c-.153-.03-.303.1-.27.284l.002.007a.445.445 0 0 0 .083.35c.516 1.774 2.397 3.513 3.99 4.24a5.6 5.6 0 0 0 2.995.47c-1.49 1.046-3.056 1.988-4.66 2.873.52-1.557-.887-2.86-2.23-3.454-.9-.4-1.892-.625-2.864-.77-.696-.106-1.574-.368-2.237-.082l-.065.06-.012-.03c-.13.35-.156.73-.127 1.114.74 2.136 2.185 4.35 4.306 4.865-1.84.94-3.698 1.86-5.532 2.822.18-1.267-.638-2.344-1.847-3.022-.88-.495-1.82-.85-2.757-1.223-.54-.215-1.294-.792-1.883-.523a.194.194 0 0 0-.08.08c-.075-.087-.242-.078-.293.03-.842 1.764.825 3.84 2.128 4.896.676.547 1.523.928 2.382 1.034-1 .557-1.987 1.132-2.953 1.74a48.783 48.783 0 0 0-3.187 2.16c-.118-.848-.764-1.544-1.594-1.96-1.08-.54-2.638-1.192-3.867-.893-.163.04-.25.14-.285.256a.342.342 0 0 0-.226.493c.794 1.657 2.273 3.516 4.102 3.64-1.32 1.2-2.456 2.555-3.123 4.08-.11-.01-.23.045-.256.17l-.013.083c-1.122.937-2.238 1.97-2.806 3.356-.443 1.078-.736 2.57.02 3.544m-4.997-1.295c-1.365 0-2.505 1.137-2.505 2.502 0 1.365 1.14 2.505 2.505 2.505s2.505-1.14 2.505-2.505-1.14-2.503-2.505-2.503m1.236-2.43l.098-.187c.338-.802-.184-1.813-1.167-1.813-.983 0-1.505 1.01-1.17 1.812h.002l.1.19.02.038.133.166.022.025c.237.25.565.37.893.366a1.196 1.196 0 0 0 .914-.39l.133-.166.023-.04m-1.07 9.497a1 1 0 0 0-.99.99 1 1 0 0 0 .99.992 1 1 0 0 0 .99-.992 1 1 0 0 0-.99-.99" fill="#000"/><path d="M109.755 76.036c-.807.162-1.9 1.374-1.778 2.27l.033.3c-.707-.415-1.527-.594-2.383-.332-1.3.4-.716 2.178.56 1.976.316-.05.658-.028 1.004.035-.547.356-.956.918-1.184 1.538-.207.563.176 1.25.663 1.52.62.347 1.54.147 1.86-.527.098-.204.18-.415.252-.63-.067.206.122-.203.118-.196l.33-.58.098-.126c.114.295.153.686.202.937.12.62.764 1.253 1.25 1.586 1.038.71 2.187-.902 1.307-1.738-.745-.706-1.437-1.453-2.423-1.79l-.024-.037.232-.033c.29-.073.557-.21.858-.255.658-.095 1.204.48 1.86.425.55-.046 1.064-.694.682-1.223-.63-.874-1.66-.715-2.588-.54a3.826 3.826 0 0 0-.498.14c.07-.124.138-.25.223-.36.285-.37.518-.606.693-1.06.323-.83-.65-1.437-1.348-1.298m14.53 4.038c-1.008-.255-2.91.53-3.26 1.616l-.126.36c-.58-.86-1.415-1.507-2.533-1.675-1.698-.255-2.003 2.09-.44 2.553.387.115.764.327 1.124.587-.817.107-1.59.524-2.187 1.106-.54.53-.48 1.52-.073 2.093.517.73 1.675 1.006 2.408.412.222-.18.43-.374.628-.58-.188.198.25-.164.24-.157l.692-.483.18-.09c-.03.397-.197.865-.28 1.177-.198.772.188 1.84.56 2.486.794 1.372 2.98.162 2.434-1.268-.463-1.208-.843-2.436-1.78-3.358l-.01-.053.284.086c.37.076.75.063 1.116.177.8.25 1.108 1.2 1.885 1.495.653.25 1.59-.21 1.443-1.02-.243-1.337-1.5-1.717-2.653-2.02a4.462 4.462 0 0 0-.642-.115c.148-.102.293-.21.45-.288.526-.265.922-.41 1.367-.827.82-.77.042-1.992-.827-2.214m-25.91-2.892c-.565.113-1.326.958-1.24 1.583l.022.21c-.493-.29-1.065-.415-1.662-.232-.906.278-.5 1.52.39 1.378.222-.035.46-.02.7.025-.38.248-.667.64-.826 1.073-.145.392.123.87.462 1.06.432.24 1.075.1 1.3-.368.067-.142.124-.29.173-.44-.046.145.086-.14.083-.135l.228-.405.07-.088c.08.206.108.478.142.653.084.433.532.873.873 1.105.723.495 1.523-.63.91-1.212-.52-.492-1.002-1.014-1.69-1.25l-.016-.023.162-.025c.203-.05.39-.147.598-.177.46-.067.84.334 1.297.296.386-.033.744-.484.477-.854-.44-.61-1.158-.498-1.806-.375a2.51 2.51 0 0 0-.346.097l.156-.25c.2-.258.362-.425.485-.74.225-.578-.455-1.002-.94-.905M36.07 76.036c.808.162 1.9 1.374 1.78 2.27a5.924 5.924 0 0 0-.035.3c.708-.415 1.527-.594 2.383-.332 1.3.4.715 2.178-.56 1.976a3.034 3.034 0 0 0-1.005.035c.55.356.96.918 1.186 1.538.208.563-.176 1.25-.662 1.52-.62.347-1.542.147-1.863-.527a5.375 5.375 0 0 1-.25-.63c.067.206-.122-.203-.117-.196l-.33-.58-.1-.126c-.112.295-.152.686-.2.937-.12.62-.765 1.253-1.25 1.586-1.04.71-2.188-.902-1.307-1.738.744-.706 1.436-1.453 2.423-1.79l.025-.037a1.49 1.49 0 0 1-.234-.033c-.29-.073-.557-.21-.856-.255-.66-.095-1.204.48-1.86.425-.552-.046-1.065-.694-.683-1.223.63-.874 1.66-.715 2.588-.54.172.034.336.085.498.14-.07-.124-.137-.25-.222-.36-.286-.37-.52-.606-.695-1.06-.323-.83.652-1.437 1.35-1.298m-14.53 4.038c1.006-.255 2.91.53 3.26 1.616l.126.36c.58-.86 1.412-1.507 2.53-1.675 1.697-.255 2.003 2.09.44 2.553-.387.115-.764.327-1.125.587.82.107 1.59.524 2.188 1.106.543.53.48 1.52.074 2.093-.517.73-1.676 1.006-2.41.412a6.93 6.93 0 0 1-.627-.58c.19.198-.248-.164-.24-.157-.234-.17-.47-.31-.69-.483l-.182-.09c.03.397.2.865.28 1.177.2.772-.187 1.84-.56 2.486-.794 1.372-2.98.162-2.433-1.268.463-1.208.842-2.436 1.78-3.358l.01-.053-.284.086c-.37.076-.748.063-1.114.177-.802.25-1.11 1.2-1.886 1.495-.652.25-1.59-.21-1.444-1.02.243-1.337 1.5-1.717 2.654-2.02.213-.058.428-.09.642-.115-.148-.102-.294-.21-.45-.288-.526-.265-.92-.41-1.368-.827-.82-.77-.042-1.992.828-2.214m25.91-2.892c.565.113 1.327.958 1.24 1.583l-.022.21c.494-.29 1.065-.415 1.662-.232.907.278.5 1.52-.39 1.378a2.088 2.088 0 0 0-.7.025c.382.248.667.64.826 1.073.144.392-.124.87-.463 1.06-.433.24-1.075.1-1.3-.368a3.78 3.78 0 0 1-.174-.44c.048.145-.083-.14-.08-.135l-.23-.405-.07-.088c-.078.206-.106.478-.14.653-.085.433-.533.873-.874 1.105-.722.495-1.523-.63-.908-1.212.518-.492 1-1.014 1.69-1.25l.015-.023a1.036 1.036 0 0 1-.162-.025c-.202-.05-.387-.147-.596-.177-.46-.067-.84.334-1.298.296-.385-.033-.742-.484-.476-.854.44-.61 1.157-.498 1.805-.375l.347.097-.155-.25c-.2-.258-.362-.425-.485-.74-.224-.578.455-1.002.94-.905" fill="#E78B2D"/><path d="M44.488 34.82c-5.852 8.93-1.232 13.548 6.16 18.782 6.162 4.002 13.246 13.547 20.64 13.854 2.463 0 8.932.617 11.09-.307 3.695-1.54 4.62-6.467 8.008-8.93 4.004-2.77 8.625-3.386 12.32-7.697 4.005-4.926 1.54-7.697 0-12.93-1.847-4.927-2.772-6.774-7.392-10.16-4.62-2.77-7.085-4.003-12.322-3.387-8.932.616-32.343 2.463-39.12 10.468" fill="#FFF"/><path d="M79.93 140.88c-3.63 0-6.573 1.778-6.573 3.973s2.943 3.974 6.572 3.974c.253 0 .503-.01.75-.027 2.66-.07 11.697-.032 15.61 3.41 4.614 4.06 3.356-11.33-16.36-11.33m-14.755 7.92c.247.016.497.027.75.027 3.63 0 6.573-1.78 6.573-3.974 0-2.195-2.942-3.975-6.572-3.975-19.716 0-20.974 15.39-16.36 11.332 3.913-3.442 12.95-3.48 15.61-3.41zm3.74-136.678c-22.81 5.147-47.64 20.916-57.56 41.23-6.402 13.114-2.98 33.85-.833 50.678.325 2.546-.763 8.67 3.337 9.447 5.09-3.465 4.542-13.22 4.17-20.614-.323-6.397-2.615-12.505-1.67-18.038 11.95-6.417 21.213-13.365 30.03-23.19 4.705-5.243 7.14-11.885 12.513-15.462 14.258-9.494 50.127-3.292 57.557 6.872 2.293 3.136 2.303 8.878 4.172 14.6 1.65 5.055 5.05 9.897 5.838 13.744 2.578 12.588-.16 26.592 6.673 36.935 5.46-26.66 6.56-65.172-17.518-71.293-3.722-18.5-25.11-18.81-40.873-24.91h-5.84zM19.85 89.63h6.438s23.04-6.434 38.964 4.065h13.554s23.378-12.19 41.676 0h7.453v5.418l-4.403 3.387s.338 17.948-13.215 18.964c0 0-19.314 4.403-27.445-3.724 0 0-6.1-7.95-6.438-15.4l-9.148-.18s-1.695 18.3-13.893 20.495c0 0-18.634 1.856-24.395-4.578 0 0-4.067-3.386-6.437-14.9l-2.71-2.032V89.63z" fill="#000"/><path fill="#1A1918" d="M19.85 89.63l-3.848-1.95-2.776 6.43 6.624 7.035m108.085-7.45l2.337-1.375 2.402 7.08-4.74-.287"/><path d="M63.405 102.68s-1.414 15.26-11.587 17.092c0 0-15.54 1.548-20.344-3.818 0 0-3.392-2.823-5.37-12.426v-9.602l3.11-1.695s19.213-5.365 32.495 3.39m21.26 0s19.495-10.167 34.756 0l2.156.786.39 4.413-.004 2.143s.283 14.97-11.02 15.816c0 0-16.107 3.67-22.888-3.107 0 0-5.087-6.215-5.37-12.427" fill="#FFF"/><path d="M50.13 98.586c0 3.808-2.3 6.895-5.137 6.895-2.836 0-5.137-3.086-5.137-6.894 0-2.1.7-3.98 1.803-5.245.897-1.03 2.062 1.095 3.333 1.095 1.3 0 2.49-2.094 3.395-1.024 1.068 1.265 1.743 3.115 1.743 5.176m-8.54-1c3.298 1.905 4.823 5.44 3.403 7.895-1.418 2.457-5.243 2.904-8.542 1-1.818-1.05-3.097-2.596-3.642-4.183-.444-1.29 1.98-1.237 2.615-2.338.65-1.128-.57-3.204.81-3.453 1.63-.292 3.57.05 5.356 1.08m-5.14 6.893c3.3-1.903 7.125-1.455 8.543 1 1.42 2.456-.106 5.99-3.405 7.894-1.82 1.05-3.8 1.384-5.446 1.064-1.34-.263-.082-2.333-.718-3.435-.65-1.127-3.06-1.107-2.585-2.425.56-1.558 1.825-3.066 3.61-4.097m3.406 7.895c0-3.808 2.3-6.894 5.137-6.894 2.836 0 5.138 3.087 5.138 6.895 0 2.1-.7 3.98-1.802 5.245-.897 1.03-2.06-1.094-3.335-1.094-1.3 0-2.49 2.094-3.394 1.025-1.07-1.263-1.744-3.113-1.744-5.175m8.543 1c-3.3-1.904-4.826-5.44-3.407-7.894 1.42-2.455 5.243-2.902 8.543-1 1.82 1.05 3.098 2.597 3.644 4.184.443 1.292-1.98 1.237-2.617 2.34-.65 1.125.57 3.2-.81 3.45-1.627.293-3.57-.05-5.354-1.08m5.136-6.894c-3.3 1.904-7.123 1.457-8.543-1-1.42-2.454.108-5.99 3.407-7.893 1.82-1.05 3.798-1.385 5.445-1.063 1.34.262.083 2.33.718 3.435.65 1.124 3.06 1.105 2.586 2.423-.56 1.558-1.83 3.066-3.614 4.098" fill="#E78B2D"/><path d="M49.232 105.482a4.237 4.237 0 0 1-8.473 0 4.236 4.236 0 0 1 4.235-4.236 4.236 4.236 0 0 1 4.237 4.236" fill="#FFF"/><path d="M46.973 105.482a1.977 1.977 0 1 1-3.954-.002 1.977 1.977 0 0 1 3.953.002" fill="#000"/><path d="M43.53 98.477c-.16-.758-.227-1.533-.358-2.297h-.067c-.22 1.32-.39 3.66.773 4.622.17.14.403.01.362-.21-.137-.726-.553-1.375-.71-2.115m2.876-2.71c-.01-.04-.073-.042-.083 0-.156.683-.133 1.396-.174 2.093-.058.944-.3 1.767-.694 2.62-.18.388.357.72.582.34.794-1.344.716-3.587.368-5.053m-8.212 7.478c-.737-.24-1.442-.57-2.17-.837l-.033.057c1.035.85 2.977 2.168 4.392 1.643.207-.078.21-.346 0-.42-.7-.244-1.47-.207-2.188-.443m-.912-3.843c-.04-.014-.072.04-.04.07.514.477 1.142.814 1.726 1.198.79.522 1.38 1.144 1.924 1.91.246.35.8.05.584-.334-.766-1.36-2.748-2.413-4.194-2.844m2.375 10.847c-.577.517-1.215.962-1.812 1.458l.034.058c1.252-.472 3.366-1.493 3.618-2.98.037-.218-.194-.354-.364-.208-.56.48-.914 1.166-1.477 1.67m-3.787-1.133c-.03.027.002.084.04.07.672-.206 1.277-.58 1.902-.894.847-.42 1.682-.624 2.616-.71.426-.038.445-.668.005-.672-1.562-.017-3.465 1.172-4.563 2.207m10.587 3.37c.16.758.227 1.533.358 2.297h.066c.22-1.32.39-3.662-.77-4.623-.17-.14-.404-.01-.362.21.136.725.552 1.374.71 2.114m-2.876 2.71c.007.04.072.042.08 0 .158-.683.134-1.394.176-2.092.058-.944.3-1.768.692-2.62.18-.387-.355-.72-.58-.34-.795 1.344-.718 3.586-.368 5.052m8.21-7.478c.74.24 1.444.57 2.17.84l.034-.06c-1.034-.848-2.977-2.168-4.39-1.643-.207.078-.21.346 0 .42.697.244 1.468.208 2.187.443m.91 3.844c.04.014.073-.042.04-.07-.512-.48-1.14-.814-1.724-1.2-.79-.52-1.383-1.14-1.924-1.907-.247-.35-.803-.053-.586.33.767 1.36 2.75 2.416 4.194 2.848m-2.374-10.847c.578-.518 1.215-.964 1.81-1.46l-.033-.056c-1.253.47-3.366 1.49-3.62 2.98-.034.215.196.352.365.206.56-.48.915-1.166 1.478-1.67m3.787 1.133c.03-.027 0-.084-.04-.07-.672.206-1.276.58-1.902.894-.847.424-1.682.625-2.616.71-.426.04-.448.67-.006.673 1.56.016 3.466-1.172 4.563-2.207" fill="#1A1918"/><path d="M105.574 98.586c0 3.808-2.3 6.895-5.138 6.895-2.836 0-5.137-3.086-5.137-6.894 0-2.1.7-3.98 1.802-5.245.897-1.03 2.063 1.095 3.334 1.095 1.302 0 2.49-2.094 3.395-1.024 1.07 1.265 1.744 3.115 1.744 5.176m-8.542-1c3.3 1.905 4.823 5.44 3.404 7.895-1.418 2.457-5.242 2.904-8.542 1-1.82-1.05-3.1-2.596-3.644-4.183-.443-1.29 1.98-1.237 2.616-2.338.65-1.128-.57-3.204.81-3.453 1.63-.292 3.57.05 5.356 1.08m-5.138 6.893c3.3-1.903 7.124-1.455 8.542 1 1.42 2.456-.105 5.99-3.405 7.894-1.82 1.05-3.798 1.384-5.445 1.064-1.34-.263-.082-2.333-.72-3.435-.65-1.127-3.06-1.107-2.583-2.425.56-1.558 1.826-3.066 3.612-4.097m3.406 7.895c0-3.808 2.3-6.894 5.136-6.894s5.137 3.087 5.137 6.895c0 2.1-.7 3.98-1.8 5.245-.9 1.03-2.063-1.094-3.337-1.094-1.3 0-2.49 2.094-3.393 1.025-1.07-1.263-1.743-3.113-1.743-5.175m8.542 1c-3.3-1.904-4.824-5.44-3.406-7.894 1.42-2.455 5.243-2.902 8.543-1 1.818 1.05 3.097 2.597 3.643 4.184.443 1.292-1.98 1.237-2.617 2.34-.65 1.125.57 3.2-.81 3.45-1.627.293-3.568-.05-5.354-1.08m5.137-6.894c-3.3 1.904-7.124 1.457-8.544-1-1.418-2.454.108-5.99 3.407-7.893 1.82-1.05 3.798-1.385 5.445-1.063 1.34.262.083 2.33.718 3.435.65 1.124 3.06 1.105 2.586 2.423-.56 1.558-1.828 3.066-3.613 4.098" fill="#E78B2D"/><path d="M104.675 105.482a4.237 4.237 0 0 1-8.474 0 4.236 4.236 0 0 1 4.238-4.236 4.236 4.236 0 0 1 4.237 4.236" fill="#FFF"/><path d="M102.416 105.482a1.977 1.977 0 1 1-3.954-.002 1.977 1.977 0 0 1 3.954.002" fill="#000"/><path d="M98.974 98.477c-.16-.758-.228-1.533-.36-2.297h-.066c-.22 1.32-.39 3.66.773 4.622.17.14.405.01.363-.21-.137-.726-.553-1.375-.71-2.115m2.877-2.71c-.01-.04-.074-.042-.084 0-.156.683-.133 1.396-.174 2.093-.057.944-.3 1.767-.693 2.62-.18.388.356.72.58.34.794-1.344.717-3.587.37-5.053m-8.212 7.478c-.74-.24-1.443-.57-2.17-.837l-.033.057c1.033.85 2.976 2.168 4.39 1.643.207-.078.21-.346 0-.42-.7-.244-1.468-.207-2.187-.443m-.913-3.843c-.04-.014-.07.04-.04.07.514.477 1.142.814 1.726 1.198.79.522 1.382 1.144 1.925 1.91.246.35.8.05.584-.334-.767-1.36-2.75-2.413-4.195-2.844M95.1 110.25c-.577.517-1.215.962-1.812 1.458l.034.058c1.253-.472 3.367-1.493 3.62-2.98.036-.218-.195-.354-.365-.208-.56.48-.914 1.166-1.477 1.67m-3.786-1.133c-.032.027 0 .084.04.07.672-.206 1.276-.58 1.902-.894.847-.42 1.68-.624 2.615-.71.427-.038.446-.668.006-.672-1.562-.017-3.466 1.172-4.562 2.207m10.586 3.37c.16.758.227 1.533.357 2.297h.068c.218-1.32.39-3.662-.773-4.623-.17-.14-.403-.01-.36.21.135.725.55 1.374.708 2.114m-2.875 2.71c.007.04.07.042.08 0 .158-.683.134-1.394.176-2.092.06-.944.3-1.768.693-2.62.18-.387-.355-.72-.58-.34-.795 1.344-.718 3.586-.368 5.052m8.21-7.478c.74.24 1.444.57 2.17.84l.034-.06c-1.035-.848-2.977-2.168-4.39-1.643-.208.078-.21.346 0 .42.696.244 1.467.208 2.186.443m.91 3.844c.04.014.073-.042.04-.07-.512-.48-1.14-.814-1.724-1.2-.79-.52-1.382-1.14-1.924-1.907-.245-.35-.8-.053-.585.33.768 1.36 2.75 2.416 4.194 2.848m-2.374-10.847c.578-.518 1.215-.964 1.81-1.46l-.033-.056c-1.253.47-3.366 1.49-3.62 2.98-.034.215.196.352.365.206.56-.48.915-1.166 1.478-1.67m3.787 1.133c.03-.027 0-.084-.04-.07-.672.206-1.276.58-1.902.894-.847.424-1.682.625-2.616.71-.425.04-.447.67-.005.673 1.56.016 3.466-1.172 4.563-2.207" fill="#1A1918"/></g></svg>