<svg width="187" height="163" viewBox="0 0 187 163" xmlns="http://www.w3.org/2000/svg"><title>Group 2</title><desc>Created with Sketch.</desc><g fill="#fff"><g><path d="M121.046 45.588h-12.612v-12.48c0-1.025-.63-1.538-1.89-1.538-1.318 0-1.978.513-1.978 1.538v43.726c0 1.025.659 1.538 1.978 1.538 1.26 0 1.89-.513 1.89-1.538v-15.557h12.612v15.996c0 2.988-1.465 5.383-4.395 7.185-2.93 1.802-6.24 2.703-9.932 2.703-10.664 0-15.996-3.779-15.996-11.338v-40.562c0-8.174 5.332-12.261 15.996-12.261 9.551 0 14.326 3.721 14.326 11.162v11.426zm34.379 41.001h-13.843v-30.234h-3.867v30.234h-13.843v-63.018h13.843v25.137h3.867v-25.137h13.843v63.018zm29.941 0h-27.07v-63.018h26.895v8.13h-13.052v17.007h11.777v7.646h-11.777v22.148h13.228v8.086z"/><path d="M103.478 162.187h-14.407v-41.272l-8.408 41.272h-11.125l-9.639-41.272v41.272h-12.612v-73.521h20.764l7.383 38.145 6.409-38.145h21.636v73.521zm3.451-12.561v-47.322c0-9.536 6.186-14.304 18.56-14.304 12.202 0 18.303 4.734 18.303 14.202v47.322c0 4.272-1.7 7.562-5.101 9.869-3.401 2.307-7.836 3.461-13.304 3.461-12.305 0-18.457-4.409-18.457-13.228zm21.072.769v-50.09c0-1.47-.872-2.205-2.615-2.205-1.812 0-2.717.735-2.717 2.205v50.09c0 1.47.906 2.205 2.717 2.205 1.743 0 2.615-.735 2.615-2.205z"/><path d="M11.957 22h-4.614v-10.078h-1.289v10.078h-4.614v-21.006h4.614v8.379h1.289v-8.379h4.614v21.006zm9.98 0h-9.023v-21.006h8.965v2.71h-4.351v5.669h3.926v2.549h-3.926v7.383h4.409v2.695zm10.859-13.667h-4.204v-4.16c0-.342-.21-.513-.63-.513-.439 0-.659.171-.659.513v14.575c0 .342.22.513.659.513.42 0 .63-.171.63-.513v-5.186h4.204v5.332c0 .996-.488 1.794-1.465 2.395-.977.601-2.08.901-3.311.901-3.555 0-5.332-1.26-5.332-3.779v-13.521c0-2.725 1.777-4.087 5.332-4.087 3.184 0 4.775 1.24 4.775 3.721v3.809zm11.46 13.667h-4.614v-10.078h-1.289v10.078h-4.614v-21.006h4.614v8.379h1.289v-8.379h4.614v21.006zm.913-3.589v-13.521c0-2.725 1.768-4.087 5.303-4.087 3.486 0 5.229 1.353 5.229 4.058v13.521c0 1.221-.486 2.161-1.458 2.82-.972.659-2.239.989-3.801.989-3.516 0-5.273-1.26-5.273-3.779zm6.021.22v-14.312c0-.42-.249-.63-.747-.63-.518 0-.776.21-.776.63v14.312c0 .42.259.63.776.63.498 0 .747-.21.747-.63zm20.927-10.298h-4.204v-4.16c0-.342-.21-.513-.63-.513-.439 0-.659.171-.659.513v14.575c0 .342.22.513.659.513.42 0 .63-.171.63-.513v-5.186h4.204v5.332c0 .996-.488 1.794-1.465 2.395-.977.601-2.08.901-3.311.901-3.555 0-5.332-1.26-5.332-3.779v-13.521c0-2.725 1.777-4.087 5.332-4.087 3.184 0 4.775 1.24 4.775 3.721v3.809zm.971 10.078v-13.521c0-2.725 1.768-4.087 5.303-4.087 3.486 0 5.229 1.353 5.229 4.058v13.521c0 1.221-.486 2.161-1.458 2.82-.972.659-2.239.989-3.801.989-3.516 0-5.273-1.26-5.273-3.779zm6.021.22v-14.312c0-.42-.249-.63-.747-.63-.518 0-.776.21-.776.63v14.312c0 .42.259.63.776.63.498 0 .747-.21.747-.63zm17.217 3.369h-4.746l-3.135-11.191v11.191h-3.853v-21.006h5.244l2.637 9.58v-9.58h3.853v21.006zm10.864-7.734v7.734h-4.497v-21.006h4.849c1.924 0 3.352.244 4.285.732.933.488 1.399 1.484 1.399 2.988v5.83c0 1.377-.381 2.351-1.143 2.922-.762.571-2.393.837-4.893.798zm1.538-4.116v-5.039c0-.742-.513-1.113-1.538-1.113v7.266c1.025 0 1.538-.371 1.538-1.113zm5.307-9.155h4.614v17.637c0 .42.259.63.776.63.508 0 .762-.21.762-.63v-17.637h4.614v17.388c0 1.211-.503 2.148-1.509 2.813-1.006.664-2.295.996-3.867.996-1.455 0-2.717-.298-3.787-.894-1.069-.596-1.604-1.558-1.604-2.886v-17.417zm23.164 21.035h-4.614c-.498-.596-.747-2.285-.747-5.068v-.029l.029-1.26.044-2.681c0-.713-.479-1.069-1.436-1.069v10.078h-4.614v-21.006h5.698c1.299 0 2.429.298 3.391.894.962.596 1.443 1.538 1.443 2.827v2.52c0 1.631-.952 2.734-2.856 3.311 1.914.449 2.871 1.606 2.871 3.472l-.073 2.3c0 3.359.288 5.264.864 5.713zm-5.288-13.77v-3.457c0-.732-.479-1.099-1.436-1.099v5.669c.957 0 1.436-.371 1.436-1.113zm5.879 10.151v-13.521c0-2.725 1.768-4.087 5.303-4.087 3.486 0 5.229 1.353 5.229 4.058v13.521c0 1.221-.486 2.161-1.458 2.82-.972.659-2.239.989-3.801.989-3.516 0-5.273-1.26-5.273-3.779zm6.021.22v-14.312c0-.42-.249-.63-.747-.63-.518 0-.776.21-.776.63v14.312c0 .42.259.63.776.63.498 0 .747-.21.747-.63z"/></g><path d="M24.323 129.519l-2.02-19.217-2.012 20.03c-2.951.657-4.968.985-6.05.985-3.362 0-5.95-1.275-7.766-3.825-.212-.303-.422-.576-.629-.819l6.255-38.006h20.457l7.553 45.895c-.966-.975-1.996-1.843-3.092-2.606-2.743-1.932-5.274-2.898-7.592-2.898-1.507 0-3.208.154-5.102.462zm18.143 32.668h-13.806l-.157-1.141c.654-.859.981-1.804.981-2.836 0-1.314-.261-2.376-.782-3.188-.321-.499-.711-.844-1.17-1.036l-1.588-11.537h-7.229l-2.377 17.268c-.85-.644-1.645-1.455-2.386-2.434-2.164-2.859-3.246-6.221-3.246-10.085 0-3.052 1.41-6.395 4.231-10.027 2.28-2.937 4.424-4.405 6.433-4.405h.29c.386 0 .657.135.811.406-.927.811-1.391 2.009-1.391 3.593 0 1.159.097 1.932.29 2.318.27.502.85.753 1.739.753.966 0 2.434-.454 4.405-1.362 1.971-.908 3.072-1.362 3.304-1.362.58 0 1.333.193 2.26.58 1.198.502 2.164 1.159 2.898 1.971-.348.502-.869.85-1.565 1.043-.541.155-1.101.309-1.681.464-.425.193-.85.541-1.275 1.043-.425.502-.638.85-.638 1.043 0 .889.328 1.546.985 1.971.502.348 1.468.657 2.898.927 2.898.58 4.385.869 4.463.869.85 0 1.913.541 3.188 1.623l.09.078.58 3.525c-.899-.315-1.393-.473-1.482-.473-1.236 0-1.855 1.005-1.855 3.014 0 .541.464 1.575 1.391 3.101s1.391 2.946 1.391 4.26v.036zm-26.679 0h-15.134l-.574-.479 5.12-31.108c.696.475 1.044.811 1.044 1.008l-.058.319c-.039.174-.058.338-.058.493 0 1.159.628 2.029 1.884 2.608 1.256.58 2.56 1.14 3.912 1.681-2.434 3.246-3.651 6.878-3.651 10.896 0 4.559 1.372 8.433 4.115 11.621 1.051 1.222 2.185 2.209 3.401 2.963zM163.548 112.29v5.702c3.35 0 5.024-1.299 5.024-3.896v-3.565c.293-.029.584-.044.871-.044 1.198 0 2.463.367 3.796 1.101 1.333.734 2.057 1.603 2.173 2.608v.116c0 .386-.213.58-.638.58-.193 0-.464-.058-.811-.174-.348-.116-.599-.174-.753-.174-1.005 0-1.913.406-2.724 1.217-.811.811-1.217 1.719-1.217 2.724 0 1.043.454 1.99 1.362 2.84.908.85 1.98 1.275 3.217 1.275.547 0 1.06-.07 1.537-.211 5.952 1.75 8.928 5.702 8.928 11.855l-.002.063c-3.049 2.048-5.86 3.072-8.434 3.072-2.766 0-5.228-.561-7.385-1.684.054-3.26.081-4.94.081-5.04 0-2.305-1.43-3.546-4.29-3.721.272-1.093.408-1.862.408-2.306 0-.695-.213-1.265-.638-1.71-.425-.444-.947-.667-1.565-.667-1.198 0-2.473.947-3.825 2.84-.309-.193-.464-.425-.464-.695 0-1.121.821-2.289 2.463-3.506 1.642-1.217 2.463-2.289 2.463-3.217 0-.618-.232-1.198-.695-1.739-.464-.541-1.005-.811-1.623-.811h-.174c.52-1.04 1.492-1.985 2.915-2.834zm5.024-4.736v-5.558c0-2.563-1.675-3.845-5.024-3.845v10.7c-1.596.78-3.08 1.905-4.45 3.375-2.917 3.13-4.376 6.626-4.376 10.49 0 4.791 1.884 8.868 5.651 12.229 1.013.904 2.072 1.686 3.175 2.347v24.894h-16.15v-61.17c.774-.437 1.553-.873 2.339-1.31 1.275-.734 3.226-1.391 5.854-1.971 2.396-.502 4.385-.753 5.97-.753 2.318 0 4.347.328 6.086.985 1.043.348 2.183.927 3.42 1.739 1.005.657 1.719.985 2.144.985.309 0 .647-.213 1.014-.638.367-.425.744-.638 1.13-.638.348 0 .976.348 1.884 1.043.908.695 1.632 1.468 2.173 2.318.425 1.159.695 2.106.811 2.84.386 1.855.898 3.304 1.536 4.347.638 1.043 1.227 1.565 1.768 1.565.253 0 .49-.067.71-.2-.245 4.156-2.374 7.269-6.387 9.338.964-1.229 1.445-2.884 1.445-4.965 0-2.164-1.005-4.067-3.014-5.709-2.009-1.642-4.308-2.463-6.897-2.463-.273 0-.544.008-.813.023zm-.142 31.794c1.63.426 3.339.64 5.128.64h2.492c1.855 0 3.864-.406 6.028-1.217.734-.282 1.441-.595 2.12-.938l-.142 4.462c0 11.758 1.008 18.423 3.025 19.995h-16.15c-1.743-2.085-2.615-7.998-2.615-17.739v-.103l.103-4.409.012-.69zm-21.032-45.325v-5.357h15.364c-5.668.891-10.789 2.677-15.364 5.357zm33.016-1.374c1.992 1.623 3.21 3.803 3.655 6.541-5.859-3.48-12.086-5.22-18.683-5.22-2.937 0-5.718.213-8.346.638-1.816.309-3.535.715-5.158 1.217l-2.086.638h-.464c-.116 0-.193-.039-.232-.116.348-.966 2.569-2.029 6.665-3.188 4.753-1.314 10.027-1.971 15.822-1.971 2.683 0 5.625.487 8.827 1.461zM15.491 39.712l-.38-.009c-2.563 0-4.793 1.018-6.691 3.053-1.897 2.035-2.846 4.31-2.846 6.823 0 3.116 1.225 5.767 3.675 7.953 2.45 2.186 5.309 3.279 8.575 3.279h1.621c1.206 0 2.513-.264 3.92-.792 1.633-.628 3.059-1.489 4.278-2.582 1.219-1.093 2.306-2.695 3.261-4.806.93-2.035 1.395-3.707 1.395-5.013 0-2.161-.722-4.58-2.167-7.256-1.445-2.676-3.085-4.592-4.919-5.748-3.97-2.488-8.205-3.732-12.703-3.732-1.91 0-3.719.138-5.428.415-1.181.201-2.299.465-3.355.792l-1.357.415h-.302l-.069-.009v-.225c.394-.585 1.811-1.224 4.253-1.915 3.091-.854 6.521-1.282 10.29-1.282 1.935 0 4.077.39 6.427 1.169 2.35.779 3.989 1.646 4.919 2.601.276.302.942 1.194 1.998 2.676.603.854 1.194 1.282 1.772 1.282.377 0 .704-.239.98-.716l.754-1.357.204.244v17.252c0 4.131-1.143 7.053-3.428 8.767-2.285 1.714-7.178 2.512-14.678 2.395v23.203h-13.491v-51.79l.333-.185c.829-.477 2.098-.905 3.807-1.282 1.558-.327 2.852-.49 3.882-.49 1.508 0 2.827.214 3.958.641.473.158.977.389 1.511.693v5.536zm4.614 2.05v-5.842c0-.359-.04-.688-.12-.989l.233.173c.591.452 1.062.955 1.414 1.508.276.754.452 1.37.528 1.847.251 1.206.584 2.149.999 2.827.415.678.798 1.018 1.15 1.018.553 0 .986-.49 1.3-1.47.314-.98.622-1.47.924-1.47.276 0 .559.358.848 1.074.289.716.433 1.414.433 2.092 0 .251-.151.792-.452 1.621-.302.829-.452 1.432-.452 1.809v.038c0 .653.132 1.25.396 1.79s.559.81.886.81c.276 0 .622-.17 1.037-.509.415-.339.672-.509.773-.509h.113l.075.038c.101.402.151.678.151.829 0 .854-.477 2.161-1.432 3.92-1.03 1.91-2.111 3.292-3.242 4.146-2.312 1.734-4.423 2.601-6.333 2.601-2.312 0-4.297-.603-5.956-1.809-1.332-.98-1.998-1.847-1.998-2.601v-.151c0-.427.113-1.074.339-1.941.226-.867.339-1.464.339-1.79 0-.452-.138-.823-.415-1.112-.276-.289-.616-.433-1.018-.433-.779 0-1.608.616-2.488 1.847-.201-.126-.302-.276-.302-.452 0-.729.534-1.489 1.602-2.28 1.068-.792 1.602-1.489 1.602-2.092 0-.402-.151-.779-.452-1.131-.302-.352-.653-.528-1.055-.528h-.113c.402-.804 1.219-1.52 2.45-2.149 1.156-.578 2.249-.867 3.279-.867l.343.015v3.808c-.304.423-.456.883-.456 1.379 0 .487.152.941.456 1.363v6.187c3.076 0 4.614-1.113 4.614-3.34v-2.259c.167-.14.324-.301.471-.481.653-.804.98-1.897.98-3.279 0-1.211-.484-2.296-1.451-3.256zm-18.105-11.5v-6.69h14.546c5.772 0 10.056.732 12.854 2.197 2.049 1.073 3.348 2.963 3.896 5.67-.562-.326-1.171-.65-1.826-.97-2.513-1.231-4.837-2.098-6.973-2.601-2.362-.578-5.001-.867-7.916-.867-5.525 0-10.386 1.087-14.581 3.262zM35.852 42.492c.094.051.191.076.292.076.251 0 .503-.151.754-.452.352-.402.653-.678.905-.829.176.327.465.628.867.905.226.151.339.452.339.905v.302c0 .226-.075.547-.226.961-.151.415-.226.672-.226.773 0 1.005.327 1.671.98 1.998.477.226.942.44 1.395.641.452.955.804 1.784 1.055 2.488.377.854.754 1.721 1.131 2.601.452 1.206.678 2.425.678 3.656 0 .754-.132 1.388-.396 1.904-.264.515-.396.798-.396.848 0 .427.214.641.641.641.352 0 .779-.346 1.282-1.037s.754-1.3.754-1.828v-.264c0-.377.013-.741.038-1.093 1.254 1.207 2.579 2.2 3.976 2.979v27.925h-13.843v-44.097zm0-9.288v-9.632h13.843v5.127l-.056-.078c-.704-1.005-1.37-1.508-1.998-1.508-.503 0-.829.276-.98.829.503 1.181 1.131 2.023 1.885 2.525.628.402.942.678.942.829l-.038.207c-.025.113-.038.22-.038.32 0 .362.094.68.282.955v20.869c-.495-.16-1.23-.575-2.205-1.244-1.508-1.03-2.789-2.136-3.845-3.317-.88-1.005-1.319-1.696-1.319-2.073 0-.05.132-.264.396-.641s.396-.754.396-1.131c0-.98-.201-1.558-.603-1.734-1.483-.628-2.5-1.47-3.053-2.525-.327-.578-.553-1.457-.678-2.639-.201-1.633-.88-3.066-2.035-4.297-.266-.284-.565-.566-.895-.845zm13.843 22.129v1.371c-.826-.508-1.611-1.086-2.355-1.734.665.025 1.45.146 2.355.363zM66.099 60.228c1.429-.457 2.752-1.117 3.969-1.98 2.061-1.458 3.663-3.242 4.806-5.353.355-.655.654-1.322.899-2.001l.39 1.417v-2.687c.284-1.115.426-2.261.426-3.438 0-1.572-.142-3.035-.426-4.389v-18.226h11.558v63.018h-14.238l-7.384-26.361zm-.417-1.488l-1.604-5.725v6.134c-1.151.229-2.383.343-3.697.343-2.889 0-5.509-.461-7.86-1.382v-2.598l.774-.167c.327-.226.49-.44.49-.641 0-.126-.182-.289-.547-.49-.242-.133-.481-.223-.717-.267v-5.985c.285.45.606.881.962 1.295 1.784 2.073 3.933 3.11 6.446 3.11 1.206 0 2.287-.377 3.242-1.131.955-.754 1.432-1.633 1.432-2.639 0-.854-.17-1.545-.509-2.073-.339-.528-.798-.792-1.376-.792-1.508 0-2.262.854-2.262 2.563 0 .578.465 1.118 1.395 1.621-.377.503-.691.754-.942.754h-.113c-.101 0-.283.019-.547.057-.264.038-.471.057-.622.057-2.01 0-3.719-.93-5.126-2.789-1.057-1.396-1.717-2.977-1.98-4.742v-3.143c.313-1.616 1.186-3.348 2.621-5.195 1.483-1.91 2.877-2.865 4.184-2.865h.188c.251 0 .427.088.528.264-.603.528-.905 1.307-.905 2.337 0 .754.063 1.256.188 1.508.176.327.553.49 1.131.49.628 0 1.583-.295 2.865-.886 1.282-.591 1.998-.886 2.149-.886.377 0 .867.126 1.47.377.779.327 1.407.754 1.885 1.282-.226.327-.565.553-1.018.678-.352.101-.716.201-1.093.302-.276.126-.553.352-.829.678-.276.327-.415.553-.415.678 0 .578.214 1.005.641 1.282.327.226.955.427 1.885.603 1.885.377 2.852.565 2.902.565.553 0 1.244.352 2.073 1.055.246.209.455.414.628.616l.511 1.857-.084.09c-.98-.352-1.508-.528-1.583-.528-.804 0-1.206.653-1.206 1.96 0 .352.302 1.024.905 2.017.603.993.905 1.916.905 2.771 0 1.86-1.043 3.631-3.129 5.315-1.232 1.006-2.644 1.76-4.236 2.263zm-1.604 1.987v25.862h-11.558v-26.677c2.24.725 5.023 1.088 8.35 1.088 1.117 0 2.186-.091 3.207-.273zm-11.558-25.143v-1.239l.661.269c-.238.318-.458.641-.661.97zm0-4.798v-7.214h15.732l2.445 8.883c-.384-.334-.783-.644-1.195-.931-1.784-1.256-3.43-1.885-4.938-1.885-1.533 0-3.374.245-5.522.735-2.149.49-3.6.735-4.354.735-.788 0-1.511-.108-2.168-.323z"/></g></svg>